<svg width="32" height="37" viewBox="0 0 32 37" fill="none" xmlns="http://www.w3.org/2000/svg">
<path d="M28.3592 19.4137C28.1884 17.9133 28.4094 14.7772 28.4242 14.5867C28.5178 13.3822 27.9535 8.62579 26.8866 9.06405C25.0968 7.64752 22.7132 7.33467 20.4843 7.18523C15.8544 6.87476 10.9292 7.58747 7.35405 10.7032C5.58604 12.3214 3.86484 14.6747 4.00317 17.1251C2.3969 19.4478 0.132264 22.6341 2.13371 25.3494C2.81406 26.2169 3.8953 26.54 4.74991 27.197C6.46897 28.5836 7.54744 30.5735 9.28276 31.9518C13.8803 36.0831 21.6869 36.9461 26.204 32.2471C29.6969 28.8442 29.1321 23.7525 28.5177 19.4139C28.1047 16.497 28.6923 22.3406 28.3592 19.4137Z" fill="white"/>
<path d="M19.8542 35.617C19.349 35.6159 18.8445 35.5788 18.3446 35.5059C17.7635 35.4286 17.1921 35.2903 16.6399 35.0934C16.3552 34.9909 16.0862 34.8488 15.841 34.6715C15.5988 34.4915 15.3802 34.2818 15.1905 34.0471C15.138 33.9758 15.1053 33.8919 15.0959 33.8038C15.0865 33.7158 15.1007 33.6268 15.137 33.546C15.1608 33.4896 15.201 33.4416 15.2523 33.4082C15.3037 33.3748 15.3639 33.3576 15.4251 33.3587C15.4416 33.3587 15.4581 33.3597 15.4745 33.3618C16.0392 33.4201 16.5973 33.5296 17.1422 33.6889L17.2215 33.714C17.7765 33.8963 18.3493 34.0191 18.9302 34.0805C19.2232 34.1089 19.5203 34.1233 19.8134 34.1233C20.7114 34.1252 21.6042 33.989 22.4608 33.7196C22.9231 33.5724 23.3705 33.3817 23.7968 33.1501C24.2231 32.9185 24.628 32.6496 25.0069 32.3465C25.7661 31.7387 26.4166 31.0065 26.9306 30.181C27.4873 29.2872 27.8564 28.2764 28.0589 27.0906C28.2535 25.9514 28.2718 24.7783 28.2639 23.7813C28.2458 21.4101 28.1687 18.9295 28.0347 16.4082L28.0125 15.999C27.9557 14.9608 27.8824 13.5915 27.8182 12.2066C27.7969 11.7427 27.7663 11.3639 27.7221 11.0144C27.2569 10.7523 26.8663 10.3758 26.5871 9.92056C26.0604 10.1314 25.5183 10.302 24.9657 10.4306C24.2081 10.6181 23.4307 10.7136 22.6502 10.715C22.194 10.7151 21.7384 10.6811 21.2873 10.6132C20.9589 10.7488 20.6192 10.8699 20.2775 10.973C20.1824 11.015 20.0894 11.0557 19.9999 11.0938C19.1801 11.4509 18.3332 11.7421 17.4672 11.9648L17.253 12.0182C16.7799 12.1448 16.297 12.2315 15.8093 12.2773C15.7241 12.3096 15.6369 12.3364 15.5483 12.3574C15.2207 12.4367 14.8848 12.4766 14.5477 12.4764C14.4282 12.4764 14.3072 12.4713 14.188 12.4614C14.076 12.4531 13.9679 12.4168 13.8736 12.3559C13.7792 12.2951 13.7016 12.2115 13.6479 12.1129C13.6047 12.0308 13.5828 11.9391 13.5844 11.8463C13.587 11.744 13.6161 11.6441 13.6688 11.5563C13.8451 11.2538 14.0269 10.9456 14.2089 10.6402C13.5752 10.9017 12.9262 11.1247 12.2656 11.308C11.6791 11.4731 11.0392 11.6289 10.2515 11.7982C10.0727 11.8363 9.89058 11.8728 9.71448 11.9082H9.71321C9.53434 11.9441 9.34936 11.9813 9.16803 12.02C9.11061 12.0322 9.04659 12.0431 8.97877 12.0546C8.7389 12.0952 8.46754 12.1412 8.30414 12.273C8.12392 12.4177 8.04531 12.7065 7.97591 12.9614C7.95623 13.0337 7.93759 13.1021 7.91784 13.1622C7.7945 13.5331 7.68868 13.8772 7.59421 14.214C7.39696 14.9207 7.23544 15.6369 7.11027 16.3599C6.9858 17.0846 6.90025 17.8154 6.85398 18.5492C6.8347 18.8514 6.82677 19.1594 6.81907 19.4573C6.80813 19.8817 6.79678 20.3206 6.75252 20.7496C6.7413 20.8708 6.68701 20.984 6.59951 21.0687C6.51888 21.1459 6.41172 21.1893 6.30007 21.1899C6.18471 21.1881 6.07409 21.1437 5.98945 21.0653C5.95478 21.0348 5.91806 21.0018 5.88125 20.9691L5.82763 20.9201C5.56066 20.6863 5.31708 20.427 5.10033 20.1459C5.06305 20.0947 5.02648 20.0401 4.99158 19.9833C4.98583 19.9833 4.98025 19.9814 4.97571 19.9779L4.91749 19.934C4.30568 19.4785 3.77914 19.2476 3.35247 19.2476C3.20262 19.245 3.0543 19.278 2.91974 19.344C2.78518 19.41 2.66825 19.5071 2.5786 19.6272C2.37467 19.8856 2.27242 20.2195 2.19255 20.5121L2.0439 21.0674C1.94276 21.4286 1.86277 21.7954 1.80434 22.1659C1.73699 22.5931 1.73592 23.0281 1.80117 23.4557C1.86253 23.8844 2.04094 24.2878 2.31676 24.6217C2.54356 24.8937 2.86157 25.0738 3.21143 25.1286C3.26262 25.1354 3.31423 25.1388 3.36587 25.1385C3.48475 25.1359 3.60332 25.1254 3.72084 25.1073H3.72298C3.7471 25.1041 3.77124 25.101 3.7954 25.0979C3.84465 25.092 3.89422 25.0892 3.94381 25.0894C3.99625 25.0894 4.04931 25.0919 4.10055 25.0943C4.15219 25.0967 4.20597 25.0991 4.25888 25.0991C4.30346 25.0991 4.34328 25.0974 4.3808 25.0938C4.39293 25.0926 4.40499 25.092 4.41673 25.092C4.47214 25.0918 4.52662 25.1062 4.57465 25.1339C4.62268 25.1615 4.66255 25.2014 4.69023 25.2494C4.7289 25.3129 4.75135 25.385 4.75561 25.4593C4.75987 25.5335 4.74581 25.6077 4.71466 25.6752C4.65593 25.7947 4.58092 25.9055 4.49177 26.0044C4.56039 26.0639 4.62582 26.1269 4.68777 26.1932C4.87979 26.2595 5.04638 26.384 5.16442 26.5494C5.26084 26.6771 5.31716 26.8306 5.32624 26.9904C5.33631 27.0258 5.34567 27.0636 5.35559 27.1094L5.52581 27.3855C5.56753 27.4531 5.60418 27.5116 5.63797 27.5646C6.05688 28.2322 6.56533 28.8392 7.14913 29.3687C7.36195 29.5625 7.5854 29.7518 7.80108 29.935C8.17997 30.2457 8.54296 30.5754 8.88866 30.9227L8.95212 30.9894C9.21777 31.2516 9.44698 31.5482 9.63357 31.8715C9.82752 32.2382 9.87852 32.5858 9.78952 32.9344C9.76606 33.0084 9.72004 33.0731 9.65793 33.1196C9.59581 33.1662 9.5207 33.1921 9.44312 33.1938C9.38487 33.1943 9.32801 33.1759 9.28107 33.1414C8.9334 32.8834 8.68409 32.5283 8.44303 32.1848C8.28305 31.9451 8.1061 31.7171 7.91356 31.5026C7.65624 31.2293 7.38036 30.9656 7.11352 30.7107C6.85398 30.4627 6.58563 30.2063 6.3345 29.9413C5.85855 29.4375 5.47056 28.8575 5.18671 28.2253C5.01604 28.3904 4.78834 28.4835 4.55086 28.4852C4.37982 28.4842 4.21286 28.4329 4.07081 28.3376C3.9281 28.2429 3.81262 28.1126 3.73583 27.9596C3.62559 28.0092 3.51246 28.0521 3.39705 28.0881C3.33241 28.1083 3.26512 28.1188 3.19739 28.1192C3.09671 28.1184 2.99793 28.0918 2.91045 28.0419C2.82297 27.9921 2.74972 27.9206 2.69767 27.8345C2.6309 27.7292 2.59066 27.6093 2.58043 27.485C2.56882 27.3564 2.59068 27.2269 2.64389 27.1092C2.75643 26.8548 2.91234 26.6218 3.10467 26.4207C2.5149 26.3325 1.96625 26.066 1.53243 25.6568C1.06959 25.1909 0.759984 24.5948 0.644975 23.9482C0.582511 23.6273 0.553272 23.3008 0.557721 22.9739C0.562026 22.6472 0.59245 22.3212 0.648703 21.9993C0.768317 21.3167 0.961124 20.6489 1.22379 20.0075C1.27352 19.886 1.32143 19.7775 1.37045 19.6767C1.35538 19.6765 1.34053 19.6729 1.32696 19.6664C1.31339 19.6598 1.30143 19.6503 1.29192 19.6386C1.23204 19.5568 1.16691 19.4791 1.10393 19.404C0.974501 19.2621 0.863376 19.1046 0.773159 18.9351C0.746824 18.881 0.719379 18.8258 0.692806 18.7724C0.593356 18.5812 0.504229 18.3847 0.425808 18.1839C0.218381 17.624 0.128192 16.997 0.0728257 16.5134C-0.0492328 15.384 -0.0177466 14.2433 0.166426 13.1224C0.314683 12.1643 0.565348 11.225 0.914114 10.3204C1.26124 9.4197 1.7021 8.55797 2.22943 7.74944C2.17121 7.71889 2.11643 7.6822 2.06603 7.63998L2.04072 7.61793L1.99963 7.5808C1.93196 7.51762 1.87793 7.44125 1.84088 7.3564C1.80383 7.27155 1.78454 7.18001 1.7842 7.08742C1.78096 6.98395 1.79833 6.88087 1.83532 6.78418C1.87231 6.68749 1.92816 6.59913 1.99963 6.52424L2.08633 6.43698C2.2019 6.31884 2.32988 6.2135 2.46803 6.12279C2.49365 6.10557 2.52054 6.089 2.54799 6.07337C2.4984 5.98368 2.46749 5.88487 2.45713 5.78291C2.44677 5.68095 2.45717 5.57795 2.4877 5.48012C2.51698 5.37626 2.5673 5.27952 2.63552 5.19592C2.70375 5.11232 2.78843 5.04363 2.88431 4.99412C3.08859 4.89258 3.31465 4.84269 3.54268 4.8488C3.8823 4.8518 4.21726 4.92819 4.52461 5.07272C5.30584 4.37411 6.17058 3.77493 7.09908 3.28885C8.23009 2.70451 9.40469 2.20871 10.6123 1.80593C11.8195 1.401 13.0509 1.07249 14.2993 0.822339C15.3912 0.589806 16.5037 0.46704 17.62 0.455872C17.7722 0.455872 17.9248 0.458648 18.0733 0.463804L18.1708 0.467611C18.6865 0.480172 19.2007 0.528462 19.7097 0.612136C20.3114 0.721203 20.785 0.894839 21.1572 1.14304C21.1907 1.10881 21.2363 1.0892 21.2841 1.08846C21.3075 1.08844 21.3305 1.09367 21.3515 1.10377C22.2653 1.54004 23.2646 1.86447 24.2309 2.17843L24.4609 2.25315C25.4955 2.59204 26.5659 2.80971 27.6507 2.90176C27.7643 2.91185 27.8734 2.95115 27.9673 3.01583C28.0597 3.07763 28.1343 3.16236 28.184 3.26173C28.2245 3.34183 28.2426 3.43138 28.2365 3.52092C28.2303 3.61046 28.2001 3.69668 28.149 3.7705C28.0856 3.86782 28.0246 3.96476 27.9683 4.05494L28.0582 4.04551C28.1265 4.03829 28.1977 4.03083 28.2671 4.02385C28.2814 4.02242 28.296 4.02171 28.3105 4.02171C28.3893 4.02508 28.4667 4.0444 28.5379 4.07848C28.6091 4.11256 28.6726 4.16071 28.7247 4.22001C28.7821 4.27782 28.8275 4.3465 28.8581 4.42204C28.8887 4.49757 28.9039 4.57845 28.9028 4.65993C28.891 4.85922 28.869 5.05778 28.837 5.25485H28.8394H28.8599C28.9785 5.25373 29.0962 5.27653 29.2059 5.32187C29.4763 5.4361 29.6413 5.65027 29.7105 5.97676C29.7685 6.25034 29.7497 6.55914 29.7256 6.85207C29.6566 7.68702 29.3363 8.4685 28.8465 8.99622C29.0433 9.20034 29.2139 9.42822 29.3542 9.67458C29.4978 9.92947 29.6106 10.2005 29.6902 10.482C29.8193 10.9105 29.8719 11.3584 29.8457 11.8052L29.835 11.9379C29.7917 12.4439 29.7049 12.9588 29.3657 13.298C29.297 13.3695 29.2145 13.4264 29.1233 13.4654C29.0321 13.5043 28.934 13.5244 28.8348 13.5246C28.8102 13.5246 28.7851 13.5233 28.7605 13.5209C28.8874 14.6375 28.97 15.7809 29.0436 16.8564L29.0794 17.3878C29.1781 18.8804 29.2442 20.1075 29.2876 21.2494C29.3408 22.6488 29.359 23.9129 29.3432 25.1141C29.337 25.7107 29.2986 26.3065 29.228 26.8989C29.1581 27.4825 29.0466 28.0604 28.8942 28.6281C28.7418 29.1931 28.5395 29.7435 28.2898 30.2727C28.0333 30.8131 27.7226 31.326 27.3626 31.8037C27.0272 32.2474 26.6554 32.6622 26.2508 33.0439C25.8474 33.4243 25.4125 33.7697 24.9507 34.0765C24.4891 34.383 24.0015 34.6483 23.4934 34.8693C22.9828 35.0909 22.4528 35.265 21.9101 35.3892C21.2355 35.5419 20.5459 35.6183 19.8542 35.617ZM4.99634 23.5227H4.98325C4.78044 23.5166 4.58642 23.4386 4.43593 23.3025C4.28697 23.1632 4.15395 23.0078 4.03932 22.8391C3.99926 22.7848 3.95785 22.7287 3.91613 22.6747C3.88284 22.7367 3.83786 22.7917 3.78366 22.8365L3.74717 22.8651C3.63575 22.9615 3.49553 23.0183 3.34842 23.0266C3.34113 23.0266 3.33383 23.0266 3.32677 23.0261C3.2127 23.021 3.10115 22.9909 2.99996 22.938C2.87505 22.869 2.77928 22.7571 2.73027 22.6231C2.67401 22.4811 2.66733 22.3243 2.71133 22.178C2.75532 22.0317 2.84741 21.9046 2.97268 21.8172L2.92508 21.7844C2.81952 21.717 2.7282 21.6296 2.65626 21.527L2.63984 21.5008H2.64619C2.62593 21.4671 2.61366 21.4292 2.61031 21.3901C2.60697 21.3509 2.61264 21.3116 2.62689 21.2749C2.64115 21.2383 2.66361 21.2055 2.69254 21.1789C2.72147 21.1523 2.75612 21.1327 2.7938 21.1216C2.87118 21.0973 2.95192 21.0853 3.03304 21.0861C3.36921 21.0861 3.74321 21.26 4.04384 21.3997C4.07398 21.4138 4.10508 21.4282 4.13522 21.442C4.614 21.6617 5.02695 21.9938 5.40199 22.3201C5.57229 22.4687 5.63995 22.7246 5.58284 23.0046L5.57999 23.0188C5.57618 23.0379 5.57205 23.0577 5.56769 23.0776C5.53747 23.205 5.46219 23.3172 5.35574 23.3934C5.25284 23.4738 5.12688 23.5191 4.99634 23.5227Z" fill="#313131"/>
<path d="M9.60754 32.6925L16.2202 34.3457" stroke="#313131" stroke-width="3.87847"/>
<path fill-rule="evenodd" clip-rule="evenodd" d="M25.0357 14.2161L24.9217 14.1927C24.7876 14.1659 24.6529 14.1772 24.5344 14.2254C24.4183 14.2727 24.3172 14.355 24.2464 14.4737C24.1524 14.6318 24.1399 14.7644 24.1835 14.9396C24.2171 15.075 24.291 15.1769 24.3876 15.2505C24.4894 15.328 24.6184 15.3732 24.7525 15.3889C25.3707 15.4616 25.9796 15.5976 26.5715 15.7906C26.8488 15.8811 27.1106 16.0037 27.3699 16.1309L27.5936 16.2411C27.7998 16.3419 28.0128 16.4391 28.2821 16.5097C28.3032 16.5152 28.3241 16.5205 28.3449 16.5254C28.4195 16.5019 28.4322 16.4735 28.448 16.4529L28.4544 16.4449C28.4736 16.4208 28.4973 16.3839 28.4749 16.2116C27.8994 15.0179 26.3407 14.4965 25.1113 14.2321L25.0357 14.2161ZM17.0904 14.5356L16.9415 14.5617C16.4595 14.6454 15.9828 14.828 15.5472 15.0481C14.7309 15.4605 13.9161 16.1371 13.4956 16.9607C13.45 17.0501 13.5475 17.1723 13.6431 17.1082C14.3715 16.6196 15.0665 16.1746 15.9193 15.9308C16.3081 15.8197 16.696 15.7529 17.0996 15.7298C17.2247 15.7226 17.3473 15.7257 17.4674 15.7286C17.8173 15.7373 18.1455 15.7454 18.4498 15.4992C18.6821 15.3112 18.6226 14.9461 18.4498 14.7497C18.1417 14.3996 17.6128 14.4489 17.1667 14.5227L17.0904 14.5356ZM17.6276 18.2014C17.5051 18.113 17.3705 18.0653 17.2299 18.0653C17.0892 18.0653 16.9547 18.113 16.8322 18.2014C16.7116 18.2883 16.6025 18.4152 16.5115 18.5735C16.3395 18.873 16.2319 19.2865 16.2319 19.7437C16.2319 20.201 16.3395 20.6145 16.5115 20.914C16.6025 21.0723 16.7116 21.1992 16.8322 21.2861C16.9547 21.3745 17.0892 21.4222 17.2299 21.4222C17.3705 21.4222 17.5051 21.3745 17.6276 21.2861C17.7482 21.1992 17.8573 21.0723 17.9482 20.914C18.1203 20.6145 18.2278 20.201 18.2278 19.7437C18.2278 19.2865 18.1203 18.873 17.9482 18.5735C17.8573 18.4152 17.7482 18.2883 17.6276 18.2014ZM26.133 18.0653C26.2736 18.0653 26.4082 18.113 26.5307 18.2014C26.6513 18.2883 26.7604 18.4152 26.8513 18.5735C27.0234 18.873 27.1309 19.2865 27.1309 19.7437C27.1309 20.201 27.0234 20.6145 26.8513 20.914C26.7604 21.0723 26.6513 21.1992 26.5307 21.2861C26.4082 21.3745 26.2736 21.4222 26.133 21.4222C25.9924 21.4222 25.8578 21.3745 25.7353 21.2861C25.6147 21.1992 25.5056 21.0723 25.4147 20.914C25.2426 20.6145 25.135 20.201 25.135 19.7437C25.135 19.2865 25.2426 18.873 25.4147 18.5735C25.5056 18.4152 25.6147 18.2883 25.7353 18.2014C25.8578 18.113 25.9924 18.0653 26.133 18.0653ZM22.3533 21.5052C22.9523 21.8693 23.865 22.7183 23.2206 23.6209C22.4978 24.3794 21.472 23.5863 20.9114 23.1529C20.8838 23.1315 20.8572 23.111 20.8319 23.0916C20.3329 22.7718 19.7723 23.5944 20.2353 23.9679C24.1239 26.8469 25.702 21.6004 22.6563 21.0772C22.3209 21.0195 22.1964 21.3926 22.3533 21.5052ZM20.8867 25.9397C21.2755 25.9679 21.7997 25.9323 22.375 25.8933C23.7284 25.8015 25.3647 25.6904 26.1877 26.3454C30.608 31.8652 13.0834 33.2843 14.9761 27.1776C15.9044 25.6569 17.7623 25.778 19.45 25.888C19.9539 25.9209 20.4425 25.9528 20.8867 25.9397ZM21.9969 26.491C21.8846 27.0125 21.8318 27.6457 22.0573 27.8338C22.2953 28.0324 23.0617 28.0055 23.2621 27.8732C23.4375 27.7574 23.433 27.2248 23.3679 26.627C22.9798 26.5355 22.304 26.491 21.9969 26.491ZM19.1815 26.597C19.6384 26.5123 20.213 26.491 20.9136 26.5541C21.092 26.9145 20.9308 28.012 20.8067 28.0432C20.3044 28.1684 19.5554 28.1849 19.3297 28.012C19.065 27.809 19.1117 27.3272 19.1604 26.8244C19.1628 26.7995 19.1652 26.7745 19.1676 26.7496L19.1815 26.597ZM18.6422 26.6043L18.8716 26.6022L18.8839 26.6554C19.2591 28.3895 16.8298 28.1414 17.495 26.7039C17.8298 26.6307 18.1841 26.6118 18.5124 26.606L18.6422 26.6043ZM23.677 26.6369L23.6727 26.7183C23.6528 27.1221 23.666 27.6539 23.8897 27.7975C24.2189 28.0087 24.837 27.9679 25.1719 26.9908C25.061 26.6993 23.8858 26.6582 23.677 26.6369ZM25.0134 29.33C24.4926 28.5244 23.3732 29.1012 23.4657 29.9814C23.5652 29.95 23.6642 29.9173 23.7627 29.8829C24.1718 29.7403 24.6206 29.5708 25.0134 29.33ZM18.2683 28.9771C18.5793 28.9226 19.0649 29.0719 19.2682 29.381C19.4542 29.6641 19.4456 30.0577 19.4341 30.2257L19.4278 30.304C19.332 30.2881 19.2364 30.2712 19.1409 30.2523C18.6656 30.1579 18.1685 30.0394 17.7003 29.8609C17.7003 29.7294 17.7604 29.0841 18.2683 28.9771ZM19.8551 29.6983C19.9497 29.501 20.3409 29.2456 20.6633 29.2719C21.3455 29.3454 21.3503 29.9276 21.4971 30.4133C20.9319 30.4503 20.3634 30.4417 19.7999 30.3849C19.7996 30.3774 19.7989 30.3665 19.7981 30.3524C19.7909 30.2295 19.7701 29.8754 19.8551 29.6983ZM23.2655 30.0867C23.1749 29.4838 22.7437 29.3411 22.3947 29.4316C22.0377 29.5241 21.8281 29.935 21.8508 30.3009C21.852 30.3212 21.8429 30.339 21.8342 30.3558C21.8321 30.3598 21.83 30.3638 21.8281 30.3679C22.3134 30.3105 22.7942 30.2161 23.2655 30.0867Z" fill="#313131"/>
<path fill-rule="evenodd" clip-rule="evenodd" d="M30.8167 17.7475C31.0356 17.5641 31.4176 17.5206 31.6821 17.52C32.2853 17.6354 32.0356 18.5548 30.8858 17.9829C32.6136 25.2082 21.5516 25.5164 23.4178 18.6479C22.301 18.3792 21.1217 18.3573 20.0965 18.8674C20.9815 22.0165 18.037 25.044 14.6525 24.2666C12.4668 23.7591 11.0081 22.0648 11.6838 19.5744C11.2548 19.7089 10.4505 19.5969 10.2016 19.2621C9.34123 19.1886 8.48584 19.0837 7.63147 18.979C5.71748 18.7444 3.80871 18.5104 1.86057 18.6312C1.59564 18.6678 1.61046 18.8545 1.62528 19.0411C1.64003 19.227 1.65478 19.4127 1.39297 19.4499C0.790912 19.395 1.02745 18.3776 1.45849 18.2122C2.06331 17.7787 7.26485 18.2089 10.2399 18.9891C10.6348 18.7301 11.2297 18.8092 11.6985 18.8716C11.774 18.8816 11.8462 18.8912 11.9137 18.8989C12.4997 17.4308 14.3779 15.6008 16.2623 15.9094C17.9887 16.0101 19.4392 16.692 20.0286 18.6394C20.9285 17.8231 22.5603 17.5595 23.5981 18.1768C24.1736 16.8828 25.1863 15.9094 26.5511 15.4705C28.2841 14.2418 30.2768 15.9268 30.8167 17.7475ZM29.4522 21.9882C28.4891 22.9833 26.8814 23.2689 25.6002 22.7352C22.3102 21.3606 23.9205 17.0733 26.4578 15.9219C26.7748 15.8429 27.1981 15.6555 27.5842 15.613C27.5974 15.6065 27.6164 15.6095 27.64 15.6133C27.6788 15.6195 27.7299 15.6277 27.7871 15.5985C30.5849 15.9109 31.222 20.2539 29.4522 21.9882ZM14.1117 23.4516C15.7524 24.1176 17.7605 23.6756 18.8407 22.2429C20.8566 19.6014 18.9222 15.1226 14.2377 16.8828C12.0201 18.3733 10.8705 22.1751 14.1117 23.4516ZM11.8143 19.0686C11.8113 19.0672 11.8083 19.0665 11.8052 19.0651C11.8223 19.0575 11.8395 19.05 11.8565 19.0423C11.851 19.0568 11.8449 19.0712 11.8395 19.0857C11.8311 19.0799 11.8238 19.0732 11.8143 19.0686Z" fill="#313131"/>
</svg>
