<svg width="26" height="29" viewBox="0 0 26 29" fill="none" xmlns="http://www.w3.org/2000/svg">
<path d="M23.0413 15.4031C22.9025 14.184 23.0821 11.636 23.0941 11.4812C23.1702 10.5025 22.7116 6.63803 21.8448 6.99411C20.3906 5.84319 18.454 5.589 16.643 5.46758C12.8813 5.21533 8.87952 5.7944 5.97477 8.32593C4.53828 9.64068 3.13981 11.5527 3.25221 13.5437C1.94713 15.4309 0.107131 18.0197 1.73329 20.2258C2.28607 20.9307 3.16456 21.1932 3.85893 21.727C5.25566 22.8536 6.1319 24.4703 7.54183 25.5902C11.2773 28.9468 17.6201 29.648 21.2902 25.8301C24.1281 23.0653 23.6693 18.9283 23.1701 15.4033C22.8345 13.0333 23.3119 17.7812 23.0413 15.4031Z" fill="white"/>
<path d="M16.1314 28.5681C15.7209 28.5672 15.311 28.537 14.9049 28.4779C14.4327 28.415 13.9685 28.3027 13.5198 28.1427C13.2884 28.0594 13.0699 27.944 12.8707 27.7999C12.6739 27.6537 12.4963 27.4832 12.3422 27.2926C12.2995 27.2347 12.273 27.1665 12.2653 27.0949C12.2577 27.0234 12.2692 26.9511 12.2987 26.8855C12.318 26.8396 12.3507 26.8006 12.3924 26.7735C12.4341 26.7464 12.483 26.7323 12.5328 26.7333C12.5462 26.7333 12.5596 26.7341 12.5729 26.7358C13.0317 26.7832 13.4852 26.8721 13.9279 27.0015L13.9923 27.022C14.4433 27.17 14.9086 27.2699 15.3806 27.3197C15.6187 27.3428 15.8601 27.3545 16.0982 27.3545C16.8278 27.356 17.5533 27.2454 18.2492 27.0265C18.6248 26.9069 18.9883 26.752 19.3347 26.5638C19.6811 26.3756 20.0101 26.1571 20.3179 25.9108C20.9347 25.4171 21.4633 24.8221 21.8809 24.1514C22.3332 23.4252 22.6331 22.6039 22.7977 21.6405C22.9557 20.7149 22.9706 19.7618 22.9642 18.9517C22.9495 17.0251 22.8869 15.0096 22.7779 12.9611L22.7599 12.6287C22.7138 11.7851 22.6542 10.6726 22.6021 9.54738C22.5847 9.17049 22.5599 8.86268 22.524 8.57872C22.146 8.36573 21.8286 8.05984 21.6018 7.68998C21.1738 7.86132 20.7334 7.99986 20.2844 8.10438C19.6689 8.25674 19.0372 8.33432 18.4031 8.33543C18.0324 8.33555 17.6623 8.30791 17.2958 8.25274C17.0289 8.36295 16.7529 8.4613 16.4753 8.54508C16.398 8.57924 16.3225 8.61224 16.2498 8.64324C15.5837 8.93335 14.8956 9.16998 14.1919 9.35088L14.0179 9.39425C13.6335 9.49713 13.2411 9.56756 12.845 9.60481C12.7757 9.63107 12.7049 9.65282 12.6329 9.6699C12.3667 9.73429 12.0938 9.76675 11.8199 9.76657C11.7228 9.76657 11.6245 9.76245 11.5276 9.75439C11.4367 9.74763 11.3488 9.71817 11.2722 9.66871C11.1955 9.61925 11.1325 9.55137 11.0888 9.47127C11.0537 9.40455 11.0359 9.33005 11.0372 9.25466C11.0393 9.17152 11.0629 9.09034 11.1058 9.01904C11.249 8.77323 11.3967 8.52278 11.5446 8.27466C11.0297 8.48716 10.5024 8.66835 9.96566 8.81725C9.48919 8.95143 8.96922 9.078 8.32925 9.21554C8.18398 9.24654 8.03601 9.27619 7.89294 9.30493H7.8919C7.74657 9.33412 7.59628 9.36429 7.44895 9.39574C7.40229 9.40566 7.35028 9.41449 7.29518 9.42384C7.10029 9.45683 6.87981 9.49421 6.74704 9.60133C6.60062 9.71888 6.53675 9.95354 6.48036 10.1606C6.46437 10.2194 6.44923 10.2749 6.43318 10.3238C6.33296 10.6252 6.24699 10.9047 6.17023 11.1784C6.00997 11.7526 5.87873 12.3345 5.77703 12.9219C5.67591 13.5107 5.6064 14.1045 5.5688 14.7007C5.55314 14.9462 5.54669 15.1965 5.54044 15.4385C5.53155 15.7833 5.52233 16.1399 5.48637 16.4885C5.47725 16.587 5.43314 16.679 5.36205 16.7478C5.29654 16.8105 5.20947 16.8457 5.11876 16.8462C5.02502 16.8447 4.93515 16.8087 4.86638 16.745C4.83821 16.7202 4.80837 16.6934 4.77847 16.6668L4.7349 16.627C4.51799 16.437 4.32009 16.2264 4.14397 15.998C4.11368 15.9564 4.08397 15.912 4.05561 15.8659C4.05094 15.8659 4.04641 15.8643 4.04272 15.8615L3.99542 15.8258C3.49833 15.4558 3.07052 15.2681 2.72385 15.2681C2.6021 15.266 2.48159 15.2929 2.37227 15.3465C2.26294 15.4001 2.16793 15.4789 2.09509 15.5765C1.9294 15.7865 1.84632 16.0578 1.78142 16.2955L1.66065 16.7467C1.57848 17.0401 1.51349 17.3382 1.46601 17.6392C1.41129 17.9863 1.41042 18.3398 1.46344 18.6871C1.51329 19.0354 1.65825 19.3633 1.88235 19.6345C2.06662 19.8555 2.325 20.0019 2.60926 20.0463C2.65085 20.0519 2.69278 20.0546 2.73474 20.0545C2.83133 20.0523 2.92767 20.0438 3.02315 20.0291H3.02489C3.04448 20.0265 3.0641 20.0239 3.08373 20.0214C3.12375 20.0166 3.16402 20.0143 3.20432 20.0146C3.24692 20.0146 3.29003 20.0166 3.33167 20.0185C3.37362 20.0204 3.41732 20.0224 3.4603 20.0224C3.49652 20.0224 3.52888 20.021 3.55936 20.0181C3.56922 20.0172 3.57902 20.0166 3.58856 20.0166C3.63358 20.0165 3.67784 20.0282 3.71687 20.0507C3.75589 20.0731 3.78829 20.1055 3.81078 20.1445C3.84219 20.1961 3.86043 20.2547 3.86389 20.315C3.86735 20.3754 3.85593 20.4356 3.83063 20.4905C3.78291 20.5876 3.72196 20.6776 3.64953 20.758C3.70528 20.8063 3.75844 20.8575 3.80878 20.9114C3.96479 20.9653 4.10014 21.0664 4.19605 21.2007C4.27439 21.3045 4.32015 21.4293 4.32752 21.5591C4.33571 21.5878 4.34331 21.6186 4.35137 21.6558L4.48968 21.8801C4.52357 21.935 4.55335 21.9826 4.5808 22.0256C4.92116 22.568 5.33428 23.0612 5.80861 23.4914C5.98153 23.6489 6.16308 23.8027 6.33831 23.9515C6.64616 24.204 6.94108 24.4719 7.22196 24.754L7.27352 24.8082C7.48936 25.0212 7.67559 25.2623 7.8272 25.5249C7.98478 25.8229 8.02622 26.1053 7.9539 26.3885C7.93484 26.4486 7.89745 26.5012 7.84699 26.539C7.79652 26.5768 7.73549 26.5979 7.67246 26.5993C7.62513 26.5997 7.57893 26.5848 7.54079 26.5567C7.25831 26.3471 7.05575 26.0585 6.85989 25.7795C6.72991 25.5847 6.58614 25.3995 6.4297 25.2252C6.22063 25.0031 5.99648 24.7889 5.77967 24.5818C5.5688 24.3803 5.35077 24.1719 5.14673 23.9566C4.76002 23.5474 4.44479 23.0761 4.21416 22.5624C4.07549 22.6966 3.89049 22.7722 3.69754 22.7736C3.55857 22.7728 3.42291 22.7311 3.3075 22.6537C3.19155 22.5768 3.09773 22.4709 3.03533 22.3465C2.94576 22.3868 2.85384 22.4217 2.76007 22.4509C2.70755 22.4674 2.65288 22.4759 2.59786 22.4762C2.51605 22.4756 2.43579 22.4539 2.36472 22.4134C2.29364 22.3729 2.23412 22.3149 2.19183 22.2449C2.13758 22.1593 2.10489 22.0619 2.09658 21.961C2.08715 21.8564 2.10491 21.7513 2.14814 21.6556C2.23958 21.4489 2.36626 21.2596 2.52252 21.0962C2.04334 21.0246 1.59757 20.808 1.24509 20.4756C0.869036 20.097 0.61748 19.6127 0.524037 19.0874C0.473286 18.8266 0.449529 18.5613 0.453143 18.2957C0.456641 18.0302 0.481361 17.7654 0.527066 17.5039C0.624251 16.9492 0.780905 16.4066 0.994316 15.8856C1.03473 15.7868 1.07365 15.6987 1.11348 15.6167C1.10123 15.6166 1.08917 15.6137 1.07815 15.6084C1.06712 15.603 1.0574 15.5953 1.04968 15.5858C1.00102 15.5194 0.948107 15.4562 0.896935 15.3952C0.791774 15.2799 0.701486 15.1519 0.628185 15.0142C0.606788 14.9703 0.584489 14.9254 0.562899 14.882C0.482097 14.7266 0.409682 14.567 0.345966 14.4039C0.177433 13.9489 0.104155 13.4395 0.0591703 13.0466C-0.0400012 12.129 -0.014419 11.2022 0.135219 10.2914C0.255677 9.51303 0.459341 8.7498 0.74271 8.01486C1.02475 7.28304 1.38295 6.58289 1.81139 5.92596C1.76409 5.90114 1.71958 5.87133 1.67863 5.83703L1.65807 5.81911L1.62469 5.78895C1.5697 5.73761 1.5258 5.67556 1.4957 5.60662C1.4656 5.53768 1.44992 5.4633 1.44964 5.38808C1.44701 5.30401 1.46113 5.22026 1.49118 5.1417C1.52124 5.06314 1.56662 4.99134 1.62469 4.93049L1.69513 4.8596C1.78903 4.76361 1.893 4.67802 2.00525 4.60432C2.02607 4.59034 2.04792 4.57687 2.07022 4.56417C2.02993 4.4913 2.00482 4.41102 1.9964 4.32818C1.98798 4.24534 1.99643 4.16165 2.02124 4.08216C2.04503 3.99777 2.08591 3.91918 2.14134 3.85125C2.19677 3.78332 2.26558 3.72751 2.34348 3.68729C2.50945 3.60479 2.69312 3.56425 2.8784 3.56922C3.15434 3.57166 3.42649 3.63372 3.67621 3.75115C4.31095 3.18354 5.01354 2.69671 5.76794 2.30177C6.68688 1.827 7.64123 1.42417 8.62243 1.09691C9.6032 0.767912 10.6037 0.500997 11.6181 0.297752C12.5052 0.108821 13.4091 0.00907402 14.3161 0C14.4398 0 14.5637 0.00225569 14.6844 0.00644484L14.7636 0.00953836C15.1826 0.0197435 15.6004 0.0589792 16.0139 0.126963C16.5029 0.21558 16.8876 0.356657 17.1901 0.558316C17.2172 0.530508 17.2543 0.51457 17.2932 0.513976C17.3121 0.513954 17.3308 0.518206 17.3479 0.526414C18.0903 0.88088 18.9023 1.14447 19.6874 1.39956L19.8743 1.46027C20.7149 1.73562 21.5846 1.91247 22.4659 1.98727C22.5583 1.99546 22.6469 2.02739 22.7232 2.07994C22.7982 2.13016 22.8589 2.199 22.8993 2.27973C22.9322 2.34482 22.9469 2.41757 22.9419 2.49032C22.9369 2.56308 22.9124 2.63313 22.8709 2.6931C22.8193 2.77218 22.7697 2.85094 22.724 2.92422L22.7971 2.91655C22.8526 2.91068 22.9104 2.90462 22.9668 2.89895C22.9784 2.89779 22.9902 2.89721 23.002 2.89721C23.0661 2.89996 23.1289 2.91565 23.1868 2.94334C23.2446 2.97103 23.2963 3.01015 23.3386 3.05833C23.3852 3.1053 23.4221 3.1611 23.4469 3.22248C23.4718 3.28385 23.4842 3.34956 23.4833 3.41576C23.4737 3.57768 23.4558 3.73901 23.4298 3.89913H23.4318H23.4484C23.5448 3.89822 23.6405 3.91674 23.7296 3.95359C23.9492 4.04639 24.0833 4.2204 24.1395 4.48567C24.1866 4.70795 24.1714 4.95885 24.1518 5.19686C24.0958 5.87524 23.8355 6.51019 23.4376 6.93896C23.5975 7.10481 23.736 7.28996 23.85 7.49013C23.9667 7.69722 24.0583 7.91743 24.123 8.14615C24.2279 8.49431 24.2707 8.85822 24.2494 9.22121L24.2407 9.32903C24.2055 9.74015 24.135 10.1585 23.8594 10.4341C23.8035 10.4922 23.7366 10.5385 23.6625 10.5701C23.5883 10.6017 23.5086 10.6181 23.428 10.6182C23.408 10.6182 23.3877 10.6172 23.3676 10.6152C23.4708 11.5225 23.5379 12.4515 23.5977 13.3253L23.6268 13.7571C23.707 14.9698 23.7607 15.9668 23.796 16.8946C23.8391 18.0316 23.854 19.0587 23.8411 20.0346C23.8361 20.5193 23.8048 21.0034 23.7475 21.4847C23.6907 21.9589 23.6001 22.4284 23.4763 22.8897C23.3525 23.3488 23.1881 23.7959 22.9852 24.226C22.7768 24.665 22.5244 25.0817 22.2319 25.4698C21.9594 25.8303 21.6573 26.1674 21.3286 26.4775C21.0008 26.7865 20.6475 27.0672 20.2722 27.3165C19.8972 27.5655 19.501 27.781 19.0882 27.9606C18.6733 28.1407 18.2427 28.2821 17.8018 28.3831C17.2537 28.5071 16.6934 28.5692 16.1314 28.5681ZM4.05948 18.7416H4.04885C3.88407 18.7367 3.72643 18.6732 3.60415 18.5627C3.48313 18.4495 3.37505 18.3232 3.28191 18.1862C3.24937 18.142 3.21572 18.0965 3.18182 18.0526C3.15478 18.103 3.11823 18.1476 3.07419 18.1841L3.04455 18.2073C2.95402 18.2856 2.84009 18.3318 2.72057 18.3385C2.71464 18.3385 2.70871 18.3385 2.70297 18.3381C2.61029 18.334 2.51966 18.3095 2.43744 18.2665C2.33596 18.2104 2.25814 18.1196 2.21832 18.0107C2.17261 17.8953 2.16719 17.7679 2.20293 17.649C2.23868 17.5302 2.3135 17.4269 2.41527 17.3559L2.37661 17.3293C2.29084 17.2745 2.21664 17.2034 2.15819 17.1201L2.14485 17.0988H2.15C2.13354 17.0714 2.12357 17.0407 2.12086 17.0089C2.11814 16.9771 2.12275 16.9451 2.13433 16.9153C2.14591 16.8856 2.16416 16.8589 2.18767 16.8373C2.21118 16.8157 2.23932 16.7998 2.26994 16.7907C2.33281 16.7709 2.39841 16.7612 2.46432 16.7619C2.73745 16.7619 3.04133 16.9032 3.28559 17.0167C3.31008 17.0281 3.33534 17.0398 3.35983 17.051C3.74884 17.2296 4.08436 17.4994 4.38907 17.7645C4.52744 17.8853 4.58242 18.0932 4.53601 18.3207L4.53369 18.3321C4.5306 18.3477 4.52725 18.3638 4.5237 18.38C4.49915 18.4835 4.43798 18.5746 4.3515 18.6365C4.26789 18.7019 4.16555 18.7387 4.05948 18.7416Z" fill="black"/>
<path d="M7.80566 26.192L13.1784 27.5351" stroke="black" stroke-width="0.738756"/>
<path fill-rule="evenodd" clip-rule="evenodd" d="M20.3412 11.18L20.2486 11.1611C20.1397 11.1393 20.0302 11.1485 19.9339 11.1876C19.8396 11.226 19.7574 11.2929 19.6999 11.3893C19.6236 11.5178 19.6134 11.6256 19.6488 11.7679C19.6761 11.878 19.7361 11.9607 19.8146 12.0205C19.8974 12.0835 20.0022 12.1202 20.1111 12.133C20.6134 12.192 21.1081 12.3025 21.589 12.4594C21.8143 12.5329 22.027 12.6325 22.2378 12.7358L22.4195 12.8253C22.587 12.9073 22.7601 12.9863 22.9789 13.0436C22.9961 13.0481 23.013 13.0523 23.0299 13.0563C23.0906 13.0373 23.1009 13.0142 23.1137 12.9975L23.1189 12.991C23.1345 12.9714 23.1538 12.9414 23.1355 12.8014C22.668 11.8315 21.4016 11.4079 20.4026 11.1931L20.3412 11.18ZM13.8857 11.4397L13.7647 11.4608C13.3731 11.5289 12.9858 11.6773 12.6319 11.8561C11.9687 12.1912 11.3066 12.7409 10.965 13.41C10.9279 13.4827 11.0072 13.582 11.0848 13.5299C11.6767 13.1329 12.2413 12.7713 12.9342 12.5733C13.2501 12.483 13.5653 12.4287 13.8932 12.4099C13.9948 12.4041 14.0945 12.4066 14.192 12.409C14.4764 12.416 14.743 12.4227 14.9902 12.2226C15.179 12.0698 15.1307 11.7732 14.9902 11.6137C14.7399 11.3291 14.3102 11.3692 13.9477 11.4292L13.8857 11.4397ZM14.3222 14.4181C14.2226 14.3463 14.1133 14.3075 13.9991 14.3075C13.8848 14.3075 13.7755 14.3463 13.6759 14.4181C13.578 14.4887 13.4893 14.5918 13.4154 14.7204C13.2756 14.9637 13.1882 15.2997 13.1882 15.6712C13.1882 16.0427 13.2756 16.3787 13.4154 16.6221C13.4893 16.7507 13.578 16.8538 13.6759 16.9244C13.7755 16.9962 13.8848 17.035 13.9991 17.035C14.1133 17.035 14.2226 16.9962 14.3222 16.9244C14.4202 16.8538 14.5088 16.7507 14.5827 16.6221C14.7225 16.3787 14.8099 16.0427 14.8099 15.6712C14.8099 15.2997 14.7225 14.9637 14.5827 14.7204C14.5088 14.5918 14.4202 14.4887 14.3222 14.4181ZM21.2328 14.3075C21.347 14.3075 21.4563 14.3463 21.5559 14.4181C21.6539 14.4887 21.7426 14.5918 21.8164 14.7204C21.9562 14.9637 22.0436 15.2997 22.0436 15.6712C22.0436 16.0427 21.9562 16.3787 21.8164 16.6221C21.7426 16.7507 21.6539 16.8538 21.5559 16.9244C21.4563 16.9962 21.347 17.035 21.2328 17.035C21.1185 17.035 21.0092 16.9962 20.9096 16.9244C20.8117 16.8538 20.723 16.7507 20.6491 16.6221C20.5093 16.3787 20.4219 16.0427 20.4219 15.6712C20.4219 15.2997 20.5093 14.9637 20.6491 14.7204C20.723 14.5918 20.8117 14.4887 20.9096 14.4181C21.0092 14.3463 21.1185 14.3075 21.2328 14.3075ZM18.1618 17.1024C18.6485 17.3983 19.3901 18.0881 18.8665 18.8214C18.2792 19.4377 17.4458 18.7933 16.9903 18.4412C16.9678 18.4238 16.9463 18.4071 16.9257 18.3914C16.5203 18.1315 16.0647 18.7998 16.4409 19.1033C19.6004 21.4425 20.8826 17.1798 18.408 16.7546C18.1355 16.7078 18.0343 17.0109 18.1618 17.1024ZM16.9702 20.7054C17.2861 20.7283 17.712 20.6994 18.1795 20.6677C19.279 20.5931 20.6085 20.5029 21.2772 21.035C24.8687 25.5198 10.6301 26.6728 12.1678 21.7112C12.9221 20.4756 14.4316 20.574 15.8029 20.6634C16.2123 20.6901 16.6093 20.716 16.9702 20.7054ZM17.8722 21.1534C17.781 21.577 17.7381 22.0915 17.9213 22.2443C18.1147 22.4057 18.7373 22.3839 18.9002 22.2764C19.0427 22.1823 19.0391 21.7496 18.9862 21.2638C18.6708 21.1895 18.1217 21.1534 17.8722 21.1534ZM15.5847 21.2395C15.9559 21.1706 16.4229 21.1534 16.9921 21.2046C17.137 21.4974 17.006 22.3891 16.9052 22.4145C16.4971 22.5162 15.8885 22.5296 15.7052 22.3891C15.49 22.2242 15.528 21.8327 15.5676 21.4242C15.5695 21.404 15.5715 21.3837 15.5734 21.3635L15.5847 21.2395ZM15.1466 21.2454L15.333 21.2437L15.3429 21.2869C15.6478 22.6959 13.674 22.4943 14.2145 21.3263C14.4865 21.2668 14.7743 21.2515 15.0411 21.2467L15.1466 21.2454ZM19.2372 21.2719L19.2338 21.338C19.2176 21.6661 19.2284 22.0982 19.4101 22.2148C19.6776 22.3864 20.1798 22.3533 20.4518 21.5594C20.3618 21.3225 19.4069 21.2892 19.2372 21.2719ZM20.3231 23.46C19.9 22.8054 18.9905 23.2741 19.0656 23.9892C19.1464 23.9638 19.2269 23.9371 19.3069 23.9092C19.6393 23.7934 20.004 23.6556 20.3231 23.46ZM14.8428 23.1733C15.0955 23.129 15.49 23.2502 15.6551 23.5015C15.8063 23.7314 15.7993 24.0513 15.7899 24.1877L15.7849 24.2514C15.707 24.2384 15.6293 24.2247 15.5518 24.2094C15.1656 24.1327 14.7617 24.0364 14.3813 23.8914C14.3813 23.7845 14.4301 23.2602 14.8428 23.1733ZM16.132 23.7592C16.2089 23.5989 16.5267 23.3914 16.7887 23.4128C17.343 23.4725 17.3469 23.9455 17.4661 24.3401C17.007 24.3702 16.5451 24.3632 16.0871 24.3171C16.0869 24.311 16.0864 24.3021 16.0857 24.2907C16.0799 24.1908 16.063 23.9031 16.132 23.7592ZM18.903 24.0748C18.8294 23.585 18.479 23.469 18.1954 23.5425C17.9054 23.6177 17.7351 23.9516 17.7535 24.2489C17.7545 24.2653 17.7471 24.2798 17.74 24.2934C17.7383 24.2967 17.7366 24.3 17.7351 24.3033C18.1294 24.2567 18.52 24.18 18.903 24.0748Z" fill="black"/>
<path fill-rule="evenodd" clip-rule="evenodd" d="M25.0386 14.0494C25.2165 13.9003 25.5269 13.865 25.7417 13.8646C26.2319 13.9584 26.029 14.7053 25.0948 14.2406C26.4986 20.1112 17.5108 20.3616 19.0271 14.781C18.1197 14.5627 17.1615 14.5449 16.3285 14.9593C17.0476 17.5179 14.6552 19.9778 11.9054 19.3461C10.1295 18.9338 8.9443 17.5571 9.49333 15.5337C9.14473 15.643 8.49129 15.552 8.28905 15.28C7.58998 15.2203 6.89499 15.1351 6.20082 15.05C4.64572 14.8594 3.09485 14.6693 1.51201 14.7674C1.29676 14.7972 1.3088 14.9489 1.32084 15.1004C1.33283 15.2514 1.34481 15.4023 1.13209 15.4325C0.642924 15.3879 0.835108 14.5613 1.18532 14.427C1.67674 14.0747 5.90294 14.4242 8.32018 15.0582C8.641 14.8477 9.12437 14.912 9.50526 14.9627C9.56661 14.9708 9.62526 14.9786 9.68011 14.9849C10.1562 13.7921 11.6823 12.3052 13.2133 12.556C14.616 12.6377 15.7945 13.1918 16.2734 14.7741C17.0045 14.1108 18.3304 13.8967 19.1735 14.3982C19.6412 13.3468 20.464 12.556 21.5728 12.1994C22.9809 11.2011 24.6 12.5701 25.0386 14.0494ZM23.93 17.495C23.1475 18.3035 21.8413 18.5355 20.8002 18.1019C18.1272 16.985 19.4355 13.5016 21.497 12.5661C21.7546 12.5019 22.0985 12.3497 22.4122 12.3151C22.423 12.3099 22.4384 12.3123 22.4576 12.3154C22.4891 12.3204 22.5306 12.3271 22.5771 12.3034C24.8503 12.5572 25.3679 16.0859 23.93 17.495ZM11.466 18.6839C12.799 19.225 14.4306 18.8659 15.3082 17.7019C16.9461 15.5557 15.3744 11.9167 11.5683 13.3469C9.76653 14.5579 8.83248 17.6468 11.466 18.6839ZM9.59935 15.1228C9.5969 15.1216 9.59445 15.1211 9.59194 15.1199C9.60586 15.1138 9.61978 15.1077 9.63364 15.1014C9.62913 15.1132 9.62423 15.1249 9.61985 15.1367C9.61301 15.132 9.60702 15.1265 9.59935 15.1228Z" fill="black"/>
</svg>
