<svg width="87" height="121" viewBox="0 0 87 121" fill="none" xmlns="http://www.w3.org/2000/svg">
<path d="M73.393 74.4306H48.3605V105.257H73.393V74.4306Z" fill="#393437"/>
<path d="M16.2396 120.552H16.2379C16.1154 120.556 15.9937 120.532 15.8814 120.483C15.7691 120.434 15.6692 120.361 15.5887 120.268C15.4938 120.149 15.4252 120.011 15.3875 119.863C15.3498 119.716 15.3439 119.562 15.3701 119.412C15.4811 118.676 15.5887 117.929 15.6927 117.206V117.205V117.202C15.7501 116.803 15.8094 116.391 15.8687 115.985C13.6093 116.599 11.2802 116.919 8.93893 116.938C7.95088 116.939 6.96392 116.872 5.98509 116.737C5.00167 116.601 4.03037 116.388 3.08001 116.1C3.03454 116.054 3.01748 116.016 3.02951 115.988C3.05028 115.938 3.15478 115.915 3.35854 115.915C3.43506 115.915 3.51431 115.918 3.59596 115.922L3.61487 115.922C3.68494 115.925 3.75108 115.928 3.80475 115.928C3.84115 115.93 3.87761 115.927 3.9133 115.919C3.12509 115.386 2.48275 114.664 2.04471 113.819C1.83365 113.411 1.66346 112.983 1.53663 112.542C1.40701 112.089 1.31156 111.628 1.2511 111.161C1.13397 110.188 1.1047 109.207 1.16366 108.228C1.21132 107.236 1.31451 106.254 1.4142 105.305V105.303C1.46886 104.778 1.52133 104.282 1.56243 103.802C1.91223 101.546 2.23087 99.203 2.53902 96.9368V96.935C3.32607 91.1487 4.1399 85.1656 5.60108 79.4698C5.97854 77.9985 6.39174 76.5785 6.82931 75.2494C7.29826 73.8248 7.81411 72.4469 8.36231 71.154C8.94309 69.7843 9.58147 68.4598 10.2598 67.217C10.9635 65.9263 11.7389 64.6761 12.5824 63.4722C13.4697 62.2785 14.4542 61.1603 15.5257 60.1287C16.5985 59.0948 17.7628 58.1602 19.0042 57.3362C20.2404 56.5156 21.558 55.8248 22.936 55.2748C24.3202 54.7238 25.7646 54.3378 27.2391 54.125L27.4042 54.1025C27.6893 54.0644 27.9859 54.0299 28.2729 53.9965C29.7767 53.8216 31.3313 53.6406 32.6029 52.8496C33.2642 52.3218 33.7725 51.6285 34.2652 50.9585C34.653 50.4303 35.0194 49.931 35.4289 49.5593C35.6225 49.3777 35.8427 49.2268 36.0819 49.1118C36.3197 48.9999 36.5788 48.9405 36.8416 48.9378H36.8508C37.0903 48.9546 37.3219 49.0305 37.5249 49.1588C37.7701 49.2932 38.0324 49.4742 38.3101 49.6658C38.5697 49.845 38.838 50.0301 39.1138 50.1919C39.1513 49.544 39.3653 48.9647 39.5715 48.4043C39.724 48.0322 39.8399 47.646 39.9174 47.2513L39.9283 47.1769C39.9549 46.9834 39.9696 46.7916 39.9839 46.6064C40.0447 45.8132 40.1022 45.0642 41.0587 44.2797C41.5242 43.9363 42.0278 43.6479 42.5595 43.4202C43.1761 43.1513 43.8126 42.9302 44.4631 42.7589C45.1646 42.5717 45.8774 42.4297 46.5971 42.3339C47.3236 42.2353 48.0558 42.185 48.7888 42.1835C49.6542 42.1756 50.5178 42.2632 51.3639 42.4446C52.1875 42.6305 52.8764 42.9114 53.4117 43.2791C53.9021 43.6201 54.3466 44.0227 54.7343 44.4771C55.0976 44.9056 55.4152 45.3709 55.6819 45.8653C56.2169 46.8422 56.58 47.8888 56.9644 48.997C57.2432 49.8005 57.5313 50.6311 57.8916 51.4347C58.1871 51.3016 58.5085 51.2356 58.8326 51.2416C59.4284 51.2513 60.012 51.412 60.5288 51.7086C60.7722 51.845 60.9937 52.0172 61.1861 52.2193C61.3597 52.3981 61.4909 52.6136 61.57 52.85C61.8323 53.1693 61.9488 53.8272 62.0619 54.4635V54.4642C62.1439 54.9272 62.2213 55.3646 62.3503 55.6709C63.1822 55.8032 63.9893 55.9713 64.749 56.17C65.4764 56.3592 66.193 56.588 66.8956 56.8552C67.5488 57.1042 68.1868 57.3918 68.8061 57.7162C69.3904 58.0231 69.9551 58.366 70.4969 58.743C71.0166 59.1056 71.5131 59.5004 71.9835 59.9252C72.4433 60.3409 72.8774 60.7841 73.2836 61.2524C73.6867 61.7184 74.0634 62.2067 74.4118 62.7151C74.7624 63.2277 75.0871 63.7575 75.3846 64.3027C75.9938 65.4288 76.5104 66.6025 76.9293 67.8123C77.3728 69.0866 77.7459 70.3843 78.0468 71.6996C78.6474 74.2674 79.0688 76.9874 79.5168 80.2816C80.1151 83.6568 80.9396 87.0899 81.7369 90.4098V90.4103C82.2542 92.5638 82.7889 94.7911 83.2589 96.988C83.7861 99.4525 84.1732 101.614 84.4425 103.597C84.7526 105.802 84.9206 108.024 84.9453 110.251C84.9535 111.388 84.9162 112.515 84.8345 113.6C84.7487 114.738 84.6109 115.87 84.4251 116.965C84.6979 117.356 84.9306 117.775 85.1197 118.213C85.2364 118.413 85.294 118.643 85.2859 118.875C85.2783 119.1 85.2153 119.321 85.1027 119.517C85.0015 119.706 84.8518 119.864 84.6691 119.975C84.4864 120.086 84.2772 120.147 84.0633 120.15H84.0626C84.0449 120.15 84.0268 120.15 84.0087 120.149C83.6536 120.118 83.2939 120.083 82.9461 120.049H82.9447C82.0611 119.963 81.1476 119.874 80.2405 119.84C78.3999 119.776 76.418 119.745 74.1816 119.745C72.8776 119.745 71.4607 119.756 69.7224 119.778L69.2444 119.785C62.1513 119.873 54.942 119.997 47.9702 120.118C37.5712 120.298 26.8173 120.484 16.2396 120.552ZM54.9555 80.9525C54.7132 81.9974 55.104 82.8475 55.5177 83.7473C55.7515 84.2227 55.9457 84.7166 56.0982 85.224C56.1966 85.5824 56.1591 86.136 56.126 86.6243C56.1124 86.8235 56.0997 87.0115 56.0982 87.1642C56.1166 87.4569 56.2731 87.7798 56.425 88.092C56.618 88.4897 56.8175 88.901 56.7495 89.2711C56.5898 90.1407 56.164 91.0138 55.7523 91.8583C55.4015 92.5777 55.0388 93.3215 54.8508 94.0484C54.754 94.4028 54.7084 94.7693 54.7152 95.1367C54.7245 95.5106 54.8061 95.8791 54.9557 96.2219C55.6116 97.5118 57.5879 98.1734 58.8958 98.6108L58.9023 98.613C59.2736 98.7524 59.6582 98.8531 60.0501 98.9135C60.4746 98.98 60.9037 99.0127 61.3333 99.0113C62.6413 99.0051 63.9366 98.7537 65.1519 98.2701C65.7267 98.0438 66.2721 97.7493 66.7767 97.393C67.2335 97.075 67.6301 96.6785 67.9482 96.2218C68.4762 95.4365 69.0664 93.8772 69.5405 92.6243C69.8321 91.8537 70.0839 91.1885 70.2719 90.8216L70.3834 89.2646C70.5133 87.4365 70.6509 85.3497 70.6407 83.7214C70.6298 81.9129 70.439 80.9054 70.0587 80.6413C69.2137 80.0543 68.0011 79.6192 66.4547 79.3485C65.0035 79.1127 63.5348 79.0013 62.0646 79.0156C60.4186 79.0156 58.9739 79.1259 58.0519 79.2184C56.9806 79.326 56.3042 79.4402 56.2466 79.478C56.1154 79.5645 56.0039 79.6297 55.9057 79.6873C55.6334 79.8472 55.4691 79.9437 55.2731 80.2532C55.0124 80.2879 54.7465 80.3244 54.4827 80.3619C54.3078 80.4192 54.216 80.5377 54.2384 80.6789C54.2564 80.7691 54.3084 80.8489 54.3836 80.9019C54.4755 80.9689 54.5868 81.004 54.7006 81.0018C54.7878 81.001 54.8741 80.9843 54.9554 80.9525H54.9555Z" fill="white"/>
<path d="M16.238 120.552C16.1155 120.556 15.9937 120.532 15.8814 120.483C15.7692 120.434 15.6692 120.361 15.5888 120.268C15.4938 120.149 15.4252 120.011 15.3875 119.863C15.3498 119.716 15.3439 119.562 15.3701 119.412C15.4814 118.675 15.5888 117.927 15.6929 117.205L15.6955 117.187C15.7522 116.793 15.8108 116.386 15.8693 115.985C13.6099 116.599 11.2808 116.919 8.93952 116.938C7.95146 116.939 6.9645 116.872 5.98568 116.737C5.00198 116.601 4.03039 116.388 3.07972 116.101C3.03425 116.055 3.0173 116.017 3.02922 115.989C3.04999 115.939 3.15449 115.916 3.35825 115.916C3.43477 115.916 3.51391 115.919 3.59567 115.922L3.61459 115.923C3.68476 115.926 3.75101 115.929 3.80446 115.929C3.84086 115.93 3.87732 115.927 3.91301 115.92C3.12482 115.386 2.48259 114.664 2.04475 113.819C1.83369 113.411 1.6635 112.983 1.53667 112.542C1.40714 112.089 1.31181 111.628 1.25147 111.161C1.13433 110.188 1.10507 109.206 1.16402 108.228C1.21168 107.236 1.31487 106.254 1.41457 105.304C1.46922 104.779 1.5218 104.283 1.56301 103.802C1.91281 101.546 2.23146 99.203 2.53961 96.9367V96.9349C3.32666 91.1486 4.14049 85.1655 5.60166 79.4697C5.97912 77.9984 6.39232 76.5784 6.8299 75.2493C7.29885 73.8247 7.81458 72.4468 8.36289 71.1539C8.94367 69.7842 9.58206 68.4597 10.2603 67.2169C10.9639 65.9263 11.7392 64.6761 12.5825 63.4722C13.4698 62.2785 14.4542 61.1603 15.5257 60.1287C16.5985 59.0948 17.7628 58.1602 19.0042 57.3362C20.2405 56.5156 21.5581 55.8248 22.9363 55.2748C24.3205 54.7238 25.7648 54.3378 27.2394 54.125L27.4044 54.1025L27.5706 54.0806C27.8025 54.0511 28.0418 54.0232 28.2735 53.9963C29.7771 53.8214 31.3318 53.6405 32.6031 52.8494C33.2644 52.3215 33.7728 51.6283 34.2654 50.9583C34.6371 50.4523 34.9878 49.9745 35.3765 49.608C35.5601 49.4296 35.7675 49.2775 35.9928 49.1559C36.2125 49.0385 36.4536 48.9666 36.7017 48.9446L37.7869 49.6105L44.0898 52.7259C44.6979 52.8962 45.1604 53.086 45.4644 53.2901C45.7684 53.4941 45.9226 53.7181 45.9226 53.956V58.8227C45.9226 59.1468 46.212 59.6835 46.7826 60.4181C47.3532 61.1527 48.2213 62.1057 49.3623 63.2506L51.481 61.1386L51.4336 60.862C51.2329 59.6757 51.1311 58.8713 51.1311 58.4708C51.1311 58.363 51.2623 58.1774 51.5197 57.9191C51.89 57.5631 52.2792 57.2274 52.6857 56.9134C53.7172 56.0954 55.2863 54.9605 57.3494 53.54L59.163 51.8326L58.9696 51.2446C59.2549 51.2594 59.5372 51.3103 59.8098 51.3962C60.0821 51.4802 60.3434 51.5967 60.5881 51.7431C61.0935 52.0471 61.4423 52.44 61.5702 52.8496C61.8326 53.1689 61.9491 53.8269 62.0621 54.4632V54.4638C62.1441 54.9269 62.2215 55.3643 62.3506 55.6705C63.1825 55.8029 63.9895 55.9709 64.7493 56.1697C65.4767 56.3589 66.1933 56.5876 66.8958 56.8548C67.5491 57.1039 68.1871 57.3914 68.8064 57.7159C69.3907 58.0228 69.9554 58.3657 70.4971 58.7427C71.0169 59.1053 71.5134 59.5001 71.9838 59.9249C72.4435 60.3407 72.8775 60.784 73.2836 61.2524C73.6868 61.7184 74.0634 62.2067 74.4118 62.7151C74.7625 63.2277 75.0872 63.7575 75.3847 64.3027C75.9939 65.4286 76.5106 66.6022 76.9296 67.8119C77.3731 69.0862 77.7462 70.3839 78.0471 71.6991C78.6477 74.267 79.0691 76.987 79.517 80.2811C80.1154 83.6564 80.9398 87.0894 81.7372 90.4093V90.4099C82.2544 92.5633 82.7892 94.7907 83.2591 96.9875C83.7863 99.4521 84.1735 101.614 84.4427 103.596C84.7529 105.801 84.9208 108.024 84.9456 110.251C84.9538 111.387 84.9165 112.514 84.8347 113.599C84.7489 114.738 84.6112 115.87 84.4254 116.964C84.6982 117.356 84.9309 117.774 85.1199 118.212C85.2367 118.413 85.2943 118.642 85.2862 118.874C85.2785 119.1 85.2156 119.321 85.103 119.517C85.0018 119.705 84.8521 119.863 84.6694 119.974C84.4866 120.086 84.2775 120.146 84.0635 120.15H84.0629C84.0453 120.15 84.0271 120.15 84.009 120.148C83.655 120.117 83.2963 120.083 82.9493 120.049H82.9464C82.0621 119.963 81.1482 119.874 80.2408 119.84C78.3996 119.776 76.4177 119.745 74.1816 119.745C72.8778 119.745 71.461 119.755 69.7226 119.778L69.2446 119.784C62.1541 119.873 54.9448 119.997 47.9731 120.118H47.9707C37.5709 120.298 26.8172 120.484 16.2394 120.553L16.238 120.552ZM34.2124 91.7167L33.3353 98.0787L35.445 102.622L40.222 101.012L48.0061 98.9606L52.4725 94.4294L54.9921 93.5836C54.8364 94.0083 54.7436 94.4536 54.7168 94.9053C54.6937 95.3568 54.7755 95.8075 54.9555 96.2222C55.6114 97.5121 57.5878 98.1737 58.8956 98.6112L58.9021 98.6133C59.2734 98.7527 59.658 98.8535 60.0499 98.914C60.4744 98.9804 60.9035 99.0131 61.3331 99.0117C62.6411 99.0055 63.9364 98.7541 65.1517 98.2705C65.7265 98.0442 66.272 97.7497 66.7766 97.3934C67.2332 97.0754 67.6298 96.6788 67.9478 96.2221C68.4758 95.4368 69.066 93.8775 69.5401 92.6247C69.8317 91.854 70.0835 91.1889 70.2715 90.8219L70.4157 88.7996C70.5436 86.9632 70.6591 85.0532 70.6384 83.5323C70.6153 81.8425 70.4255 80.8971 70.0582 80.642C69.2132 80.055 68.0006 79.62 66.4542 79.3491C65.003 79.1133 63.5343 79.002 62.0641 79.0163C60.4181 79.0163 58.9734 79.1266 58.0514 79.219C56.9801 79.3266 56.3037 79.4408 56.2461 79.4787C56.1149 79.5651 56.0034 79.6304 55.9052 79.688C55.6329 79.8478 55.4686 79.9443 55.2726 80.2539L55.1345 80.2724L55.9118 79.2181L55.6367 79.071C54.6591 78.5527 53.8411 78.1585 53.2053 77.8993C52.5696 77.6401 52.098 77.5087 51.8039 77.5087C51.4962 77.5087 51.0208 77.751 50.3908 78.2287C49.5496 78.896 48.7529 79.6175 48.0058 80.3886L47.8371 80.4665C46.849 80.9157 45.8861 81.4182 44.9525 81.9717C44.1897 82.4357 43.6133 82.8702 43.2391 83.2633L43.2122 83.2917C42.456 84.103 40.9385 86.2898 38.7003 89.7913L35.4444 91.7169L34.2124 91.7167ZM56.0393 85.0254L54.8622 82.772V80.9818C54.8939 80.974 54.925 80.9642 54.9555 80.9525C54.7133 81.9975 55.104 82.8476 55.5176 83.7475C55.7184 84.162 55.8926 84.5888 56.0394 85.0253L56.0393 85.0254Z" fill="#FBB6CE"/>
<path d="M16.4502 119.849C16.3222 119.849 16.196 119.818 16.0825 119.759L16.056 119.744L16.0114 119.718C15.8511 119.621 15.7257 119.475 15.6532 119.302C15.5731 119.131 15.5614 118.937 15.6204 118.758C15.7775 118.301 15.9074 117.835 16.0094 117.363C16.1056 116.956 16.205 116.536 16.3401 116.134L16.1105 116.236L15.8085 116.368C14.5769 116.916 13.3097 117.38 12.0154 117.757C10.5826 118.16 9.28693 118.355 8.05432 118.355C7.14377 118.358 6.23679 118.241 5.35693 118.007C4.56819 117.801 3.82088 117.461 3.14794 117.001C2.47382 116.542 1.91852 115.93 1.52794 115.214C1.15507 114.494 0.905868 113.715 0.790733 112.912C0.674334 112.109 0.611705 111.3 0.603262 110.489C0.552382 108.497 0.658378 106.505 0.920268 104.53C1.08465 103.195 1.32332 101.87 1.63517 100.562C1.45315 100.401 1.33741 100.178 1.3104 99.9361C1.18491 98.9232 1.34057 97.8725 1.49099 96.8564V96.8536C1.52509 96.6231 1.5604 96.3848 1.59134 96.1531C1.76318 94.8661 1.94048 93.6805 2.13363 92.5287C2.55383 90.0215 3.03612 87.5768 3.56705 85.2628C4.05032 83.1563 4.62311 81.0166 5.26959 78.9033C5.90163 76.8373 6.62047 74.7422 7.40642 72.6763L7.54317 72.3188C8.35591 70.2057 9.13706 68.3972 9.9311 66.7902C10.8105 64.9842 11.8302 63.2499 12.9809 61.6034C13.5212 60.8231 14.1085 60.0764 14.7394 59.3674C15.3709 58.6596 16.0757 58.0209 16.8419 57.462C18.184 56.492 19.7698 55.702 21.6899 55.0462C22.5459 54.7549 23.4164 54.5079 24.2978 54.3062C25.1525 54.1095 26.0498 53.9473 26.965 53.8227C27.2363 53.7858 27.5143 53.7505 27.7832 53.7163C29.3475 53.5172 30.9649 53.3118 32.4128 52.6748C32.3621 52.5792 32.3314 52.4742 32.3226 52.3662C32.3139 52.2583 32.3273 52.1497 32.3621 52.0472C32.4272 51.8361 32.5621 51.6535 32.7447 51.5294C33.8044 50.8298 34.7951 49.9456 35.7532 49.091C35.8934 48.966 36.0384 48.8367 36.1819 48.7095C36.2395 48.6565 36.3146 48.6267 36.3929 48.6259C36.4472 48.6265 36.5004 48.6409 36.5476 48.6677C36.5949 48.6944 36.6346 48.7327 36.663 48.7789C36.6903 48.8247 36.7049 48.8769 36.7052 48.9301C36.7055 48.9834 36.6915 49.0357 36.6646 49.0817C36.3094 49.7848 35.8876 50.4523 35.4051 51.0749C35.0926 51.4622 34.7589 51.8261 34.4447 52.1617C35.2755 52.8801 35.9809 53.7577 36.6638 54.6062L36.7056 54.6582C36.9181 54.9223 37.1303 55.1924 37.3356 55.4537C37.9823 56.2767 38.651 57.1276 39.3983 57.8849C39.8655 58.3631 40.3854 58.7868 40.948 59.1479C41.511 59.5057 42.1134 59.7973 42.7433 60.0167L43.0056 60.1077C43.6771 60.3296 44.3242 60.6193 44.9369 60.9724C45.6135 61.383 46.1055 61.8565 46.441 62.4201C46.4663 62.4622 46.4796 62.5103 46.4796 62.5594C46.4796 62.6085 46.4663 62.6566 46.441 62.6987C46.4159 62.7443 46.3794 62.7825 46.335 62.8097C46.2907 62.837 46.24 62.8522 46.188 62.8539C46.1385 62.8537 46.0899 62.8394 46.0481 62.8128C45.2331 62.3081 44.3101 62.0558 43.4169 61.8118C42.9075 61.6727 42.3808 61.5287 41.8768 61.3393C41.2141 61.0894 40.5801 60.7694 39.9857 60.3845C39.3919 59.998 38.8362 59.556 38.3261 59.0645C37.4687 58.2428 36.7121 57.3106 35.9805 56.4092L35.9767 56.4046C35.8273 56.2205 35.6728 56.0302 35.5198 55.8437C34.6333 54.7803 33.6572 53.7949 32.6024 52.8983C31.7942 53.4288 30.9207 53.8523 30.0036 54.158C29.1267 54.4631 28.2186 54.695 27.2077 54.945L27.0007 54.9963C25.8937 55.2704 24.995 55.5203 24.1726 55.7834C23.2388 56.0764 22.3237 56.4264 21.4326 56.8313C20.6409 57.1891 19.8708 57.5927 19.1261 58.0403C18.381 58.4867 17.6817 59.0053 17.0383 59.5888C15.6397 60.8723 14.5593 62.53 13.6562 63.9832C12.5858 65.7251 11.6429 67.5423 10.835 69.4204C10.1135 71.071 9.41329 72.8895 8.63214 75.1418C7.94184 77.1326 7.29624 79.1785 6.71339 81.2227C6.13545 83.2499 5.60397 85.3284 5.13393 87.4002C4.67143 89.4391 4.28348 91.523 3.94789 93.7709C3.79595 94.7885 3.658 95.8303 3.53775 96.8674C3.50671 97.135 3.48113 97.4092 3.45631 97.6743V97.6767C3.37859 98.5074 3.29825 99.3664 3.04169 100.171C2.98752 100.361 2.8738 100.528 2.71725 100.649C2.5818 100.748 2.41805 100.801 2.25027 100.799C2.23683 100.799 2.22327 100.799 2.20993 100.798L2.14019 101.671C2.05121 102.789 1.96191 103.98 1.9325 105.167C1.8797 107.294 1.91676 109.2 2.04608 110.993L2.06586 111.258C2.10879 111.99 2.22684 112.716 2.41817 113.423C2.65287 114.217 3.00245 114.832 3.48703 115.304C3.99599 115.8 4.66892 116.174 5.48679 116.416C6.23119 116.626 7.00089 116.734 7.77448 116.736C7.82192 116.737 7.86914 116.737 7.91495 116.737C8.73117 116.732 9.54498 116.648 10.3446 116.484C11.1503 116.319 11.9436 116.099 12.7191 115.825C14.2813 115.284 15.7948 114.574 17.2586 113.886L17.6375 113.709C19.1884 112.982 20.7604 112.196 22.3095 111.372C23.818 110.569 25.3497 109.707 26.8616 108.809C28.3714 107.912 29.8944 106.967 31.388 106.001C32.1134 105.532 32.8464 105.046 33.5666 104.558C33.7104 104.461 33.8537 104.359 33.9923 104.26C34.2503 104.075 34.517 103.885 34.7903 103.723C34.6875 103.63 34.6161 103.507 34.5856 103.372C34.5711 103.302 34.5707 103.231 34.5843 103.161C34.5979 103.092 34.6253 103.026 34.6649 102.967C34.36 102.698 34.0963 102.385 33.8825 102.039C33.6624 101.684 33.481 101.306 33.3415 100.913C33.0692 100.138 32.9153 99.3277 32.8851 98.5076C32.844 97.45 32.9739 96.3802 33.0996 95.3457L33.1003 95.3402C33.1204 95.1746 33.1412 95.0033 33.161 94.8351C33.2352 94.2023 33.3267 93.578 33.4143 92.9969C33.4296 92.8955 33.443 92.7944 33.4572 92.6875C33.4765 92.5417 33.4964 92.3908 33.5213 92.2423C31.8988 93.1338 30.22 93.9946 28.5315 94.8009C26.8656 95.5963 25.141 96.3622 23.4057 97.0771C21.6887 97.7845 19.9243 98.4358 18.0118 99.0681L17.6424 99.1896C16.5972 99.5318 15.7898 99.7792 15.0247 99.9914C14.0594 100.259 13.1888 100.462 12.3633 100.612C12.358 100.613 12.3525 100.613 12.3471 100.613C12.3233 100.612 12.3004 100.603 12.2821 100.588C12.2638 100.572 12.2511 100.552 12.246 100.528C12.2418 100.511 12.2441 100.492 12.2527 100.477C12.2612 100.461 12.2753 100.449 12.2922 100.443C13.4467 99.9337 14.6467 99.4702 15.8072 99.0213C16.3949 98.7942 17.0026 98.5592 17.5967 98.3217L17.8869 98.2035C17.8518 98.2017 17.817 98.1966 17.7829 98.1884C17.0505 98.0116 16.3121 97.7639 15.5984 97.5243L15.5967 97.5237C15.3038 97.4253 15.001 97.3238 14.7048 97.2292C14.4085 97.1347 14.095 97.0495 13.7916 96.9669C13.1206 96.7847 12.4267 96.5963 11.8223 96.2847C11.8094 96.2787 11.799 96.2685 11.7927 96.2557C11.7865 96.243 11.7849 96.2284 11.7881 96.2146C11.7915 96.1979 11.8002 96.1826 11.8129 96.1712C11.8256 96.1597 11.8416 96.1527 11.8586 96.151C11.9579 96.1441 12.0618 96.1406 12.1676 96.1406C12.8441 96.1406 13.5476 96.2795 14.228 96.4139C14.4587 96.4595 14.6761 96.5025 14.8948 96.5406L15.2594 96.6044C15.8183 96.7028 16.4679 96.8213 17.1028 96.979C17.1146 96.8756 17.147 96.7755 17.1981 96.6848C17.2492 96.5941 17.318 96.5146 17.4004 96.4509C18.8818 95.3539 19.006 93.3304 19.1156 91.5451V91.5441C19.1382 91.1784 19.1594 90.8329 19.1914 90.5022L19.3327 89.0435C19.5725 86.5811 19.8402 83.9629 20.2435 81.4038C20.2466 81.3794 20.2589 81.3571 20.2778 81.3413C20.2967 81.3256 20.3209 81.3177 20.3454 81.319C20.3779 81.3177 20.4096 81.329 20.4338 81.3507C20.458 81.3723 20.4728 81.4026 20.475 81.435C20.4893 83.5872 20.3805 85.7688 20.2753 87.8787C20.227 88.8483 20.1769 89.8509 20.1396 90.8388L20.1212 91.3534L20.1185 91.4345C20.0539 93.3442 19.9873 95.3187 18.7849 96.787C18.8594 96.7432 18.9441 96.7196 19.0305 96.7187C19.0861 96.7177 19.1413 96.7291 19.1921 96.7521C19.2428 96.775 19.2878 96.809 19.3238 96.8515C19.4874 97.0296 19.5814 97.2607 19.5883 97.5025C20.6486 97.0579 21.7554 96.5806 22.8773 96.0836C24.6003 95.3203 26.3515 94.491 28.0822 93.6189C29.7662 92.7702 31.4759 91.8583 33.1638 90.9079C33.2361 90.8643 33.3164 90.8355 33.4 90.8231C33.4835 90.8107 33.5687 90.8151 33.6505 90.8359C33.7324 90.8567 33.8093 90.8936 33.8768 90.9444C33.9443 90.9951 34.0011 91.0588 34.0438 91.1317L34.0695 91.128C34.0738 91.1273 34.0782 91.127 34.0826 91.1269L34.108 91.1257H34.1109C34.2622 91.0444 34.4318 91.003 34.6036 91.0054C34.9851 91.0155 35.3495 91.1662 35.6267 91.4286C35.6364 91.438 35.6454 91.4482 35.6534 91.4573L35.6594 91.4642C36.1795 91.2302 36.6594 90.9156 37.0814 90.532C37.527 90.1238 37.9394 89.6808 38.3148 89.2073C38.6612 88.7762 39.0077 88.2956 39.3742 87.7381C39.6742 87.2814 39.9679 86.8039 40.2521 86.3421C40.6831 85.6415 41.1287 84.9172 41.6116 84.2391C42.0863 83.556 42.6299 82.9233 43.2337 82.351C43.8919 81.7474 44.63 81.2373 45.4272 80.8349C46.2241 80.4341 47.059 80.114 47.9195 79.8795C47.9164 79.8542 47.9189 79.8286 47.927 79.8045C47.9351 79.7803 47.9485 79.7583 47.9662 79.74C47.9859 79.7139 48.0106 79.6921 48.039 79.6759C48.0674 79.6597 48.0987 79.6495 48.1312 79.6458C48.1664 79.6472 48.2008 79.6565 48.232 79.673C48.2397 79.6767 48.2461 79.6828 48.2502 79.6903L48.4181 79.4033C48.5402 79.1957 48.6096 79.0835 48.6367 79.0495C48.8308 78.8051 49.0329 78.5598 49.238 78.3202C49.578 77.8981 49.9821 77.532 50.4356 77.2352C50.8024 77.0088 51.2261 76.8917 51.6572 76.8975C52.2693 76.8975 52.896 77.1021 53.5017 77.3L53.5156 77.3044C53.9206 77.4367 54.3314 77.5741 54.7289 77.7069L54.7399 77.7105C54.9487 77.7803 55.1646 77.8526 55.3769 77.923L55.4409 77.944C55.4792 77.9563 55.5174 77.9684 55.5605 77.9817C55.7807 78.0424 55.994 78.1255 56.1972 78.2299C56.3893 78.3268 56.5437 78.4848 56.6362 78.6791C56.7286 78.8733 56.7538 79.0928 56.7078 79.303C58.3923 78.886 60.1221 78.6801 61.8574 78.6901C63.2908 78.6943 64.7215 78.813 66.136 79.045C67.5329 79.2728 68.9127 79.5953 70.2657 80.0105C70.3527 80.0342 70.4319 80.0803 70.4956 80.144C70.5593 80.2077 70.6054 80.2869 70.6292 80.3738C70.8778 81.634 71.0486 82.9082 71.1406 84.1894C71.2319 85.4707 71.224 86.7571 71.1168 88.0372C71.0243 89.1394 70.8477 90.233 70.5886 91.3084C70.3284 92.3836 69.9679 93.4319 69.5118 94.4397L69.4593 94.5539C68.9106 95.7404 68.3514 96.6796 67.75 97.4253C67.4027 97.8644 67.0025 98.259 66.5585 98.6001C66.1271 98.9312 65.6378 99.179 65.1156 99.3308C64.5621 99.4759 63.9911 99.5437 63.4191 99.532C62.9221 99.532 62.4172 99.496 61.9288 99.4614C61.6725 99.4431 61.4074 99.4243 61.1515 99.4114C60.869 99.3972 60.58 99.3855 60.3005 99.3742H60.2998C59.3312 99.3349 58.3297 99.2945 57.3646 99.1412C56.8247 99.0607 56.3031 98.8863 55.8233 98.626C55.3457 98.3622 54.9286 98.0013 54.599 97.5666C54.004 96.7836 53.691 95.8285 53.4415 94.9135C53.3072 94.9562 53.1969 94.9948 53.0946 95.0348C52.6223 95.2306 52.1942 95.5194 51.8357 95.884C51.483 96.2256 51.1609 96.6065 50.8492 96.9749C50.4769 97.4372 50.0716 97.8719 49.6365 98.2757C48.8962 98.9195 48.0587 99.4422 47.1551 99.8245C46.389 100.148 45.5992 100.413 44.7926 100.616C43.9898 100.825 43.1615 100.996 42.3607 101.161L42.3539 101.163C42.0092 101.234 41.6528 101.307 41.3031 101.383L41.1651 101.413C40.5421 101.55 39.7267 101.74 38.9387 101.996C38.2086 102.225 37.5059 102.534 36.8431 102.916C36.8215 103.141 36.7157 103.349 36.5469 103.499C36.6632 103.606 36.7425 103.747 36.7733 103.902C36.8025 104.07 36.7667 104.243 36.6732 104.385C36.1974 105.14 35.427 105.627 34.6827 106.098L34.6817 106.099C34.5376 106.19 34.3885 106.285 34.2445 106.379L34.1872 106.416C33.326 106.987 32.4451 107.555 31.569 108.103C29.8528 109.177 28.065 110.221 26.1018 111.293C24.5774 112.126 23.0583 112.922 21.5866 113.659C20.0357 114.435 18.4865 115.172 16.9822 115.848C17.0714 116.353 17.1225 116.863 17.1352 117.375C17.1491 117.794 17.184 118.212 17.2397 118.627L17.2616 118.758C17.2968 118.91 17.2917 119.069 17.2467 119.218C17.2018 119.367 17.1185 119.502 17.0053 119.609L16.9803 119.632V119.629L16.9585 119.649L16.951 119.656L16.9535 119.654C16.9272 119.678 16.8993 119.701 16.8699 119.721L16.8335 119.745C16.7177 119.814 16.5851 119.85 16.4502 119.849ZM34.2174 92.4527C34.2184 92.5285 34.2187 92.6064 34.219 92.6752C34.219 92.787 34.2199 92.8926 34.2227 92.9978C34.2353 93.4751 34.2417 93.9841 34.2417 94.5104C34.2417 94.8917 34.2343 95.2792 34.2271 95.6539C34.2143 96.3179 34.2011 97.0043 34.2292 97.6786C34.2442 98.1515 34.2964 98.6226 34.3853 99.0873C34.4727 99.5526 34.6287 100.002 34.8483 100.422C35.0018 100.709 35.1935 100.973 35.4183 101.209C35.6384 101.435 35.878 101.642 36.1345 101.826C36.7815 101.437 37.4649 101.112 38.175 100.855C38.8897 100.595 39.6188 100.377 40.3587 100.202C40.9421 100.06 41.54 99.9314 42.1187 99.8069H42.1194C43.3137 99.5498 44.5486 99.2841 45.7257 98.8866C46.5701 98.6131 47.372 98.2223 48.1079 97.7258C48.8219 97.2339 49.3908 96.5703 49.9407 95.929L49.947 95.9216C49.9947 95.866 50.0425 95.8103 50.0904 95.7547L50.1858 95.6445C50.7925 94.9486 51.4772 94.2506 52.3713 93.8573C52.6783 93.7328 52.994 93.6313 53.316 93.5534C53.8414 93.412 54.3845 93.2659 54.7942 92.9468C55.1344 92.6816 55.1685 92.3047 55.2046 91.9056L55.2066 91.8822C55.1104 91.8956 55.0134 91.9021 54.9163 91.9016C54.6739 91.8956 54.4322 91.8729 54.193 91.8337H54.1915C54.098 91.8206 54.0015 91.807 53.908 91.7961L53.6885 91.7704C53.289 91.7299 52.8927 91.6624 52.5024 91.5685C52.4865 91.5636 52.4726 91.5538 52.4627 91.5405C52.4529 91.5271 52.4475 91.511 52.4475 91.4944C52.4475 91.4778 52.4529 91.4616 52.4627 91.4483C52.4726 91.4349 52.4865 91.4251 52.5024 91.4203C52.9461 91.3156 53.3966 91.2418 53.8505 91.1995L53.9081 91.1927L54.0204 91.1787C54.075 91.1715 54.1314 91.1637 54.1859 91.1562H54.1872C54.4266 91.1174 54.6684 91.0949 54.9109 91.089C55.0521 91.0877 55.193 91.102 55.3309 91.1318C55.4081 90.8376 55.5223 90.5545 55.671 90.2892C55.7366 90.1715 55.8185 90.0507 55.9054 89.9228C56.1061 89.6277 56.3134 89.3216 56.352 89.0052C56.3666 88.862 56.3392 88.7177 56.273 88.5898L56.2511 88.549C56.2268 88.4988 56.1907 88.4552 56.1458 88.422C56.1345 88.432 56.1207 88.439 56.1059 88.4423C55.9635 88.4887 55.8094 88.4839 55.6702 88.4285C55.531 88.3731 55.4156 88.2708 55.344 88.1391C54.9103 88.1843 54.4745 88.2058 54.0384 88.2037C53.8153 88.2067 53.6046 88.2095 53.4013 88.2186L52.7932 88.248C52.5931 88.2572 52.3295 88.2677 52.0661 88.2678C51.6592 88.275 51.2528 88.2387 50.8536 88.1596C50.832 88.1534 50.8128 88.1406 50.7989 88.1229C50.7849 88.1053 50.7769 88.0837 50.7759 88.0612C50.7727 88.0414 50.7761 88.0211 50.7855 88.0033C50.7948 87.9856 50.8097 87.9714 50.8279 87.9628C51.4797 87.6841 52.238 87.5723 52.9704 87.4643C53.0769 87.4485 53.187 87.4323 53.2929 87.416C53.5915 87.3701 53.8966 87.3309 54.1918 87.293L54.1991 87.292C54.345 87.2732 54.4959 87.2538 54.644 87.2338C54.74 87.2209 54.8399 87.2049 54.9366 87.1894H54.9375C55.1476 87.152 55.3595 87.1257 55.5724 87.1107C55.7627 86.8739 55.8899 86.5927 55.9421 86.2934C55.9928 86.0041 55.9793 85.7071 55.9025 85.4236C55.83 85.1516 55.6995 84.8985 55.5199 84.6816C55.3412 84.4644 55.1095 84.2968 54.8472 84.1949C54.6906 84.2628 54.5213 84.2964 54.3506 84.2933C54.2085 84.2903 54.0667 84.2787 53.9259 84.2587H53.9244C53.8412 84.2486 53.7553 84.2382 53.6663 84.2306C53.187 84.1895 52.7902 84.1703 52.4174 84.1703H52.3721C52.0132 84.1786 51.655 84.2049 51.2988 84.249C50.9311 84.2949 50.5612 84.3215 50.1906 84.3285C50.0369 84.3292 49.8833 84.321 49.7305 84.304C49.6886 84.2977 49.6493 84.2799 49.617 84.2526C49.5846 84.2252 49.5605 84.1894 49.5473 84.1491C49.5384 84.1203 49.5386 84.0893 49.5481 84.0606C49.5576 84.0319 49.5758 84.0069 49.6002 83.9891C49.9414 83.7242 50.3321 83.5303 50.7493 83.4187C51.1696 83.3021 51.598 83.2171 52.031 83.1645L52.2037 83.1414C52.2791 83.1316 52.36 83.1203 52.4383 83.1094C52.6627 83.0782 52.9167 83.0429 53.1753 83.0195C53.217 82.9365 53.2788 82.8653 53.3553 82.8125C53.4317 82.7597 53.5201 82.727 53.6125 82.7174C53.6702 82.7095 53.7288 82.7045 53.7856 82.6997L53.8046 82.698L53.8036 82.6917C53.8693 82.6894 53.9334 82.6704 53.9897 82.6364C54.046 82.6025 54.0927 82.5547 54.1254 82.4976C54.3039 82.2134 54.2666 81.6916 54.1611 81.4422C54.0335 81.1408 53.7706 80.9216 53.3796 80.7908C53.0178 80.6828 52.6413 80.6326 52.2638 80.6421C52.0999 80.6421 51.9291 80.6484 51.7282 80.662C50.7534 80.7271 49.7866 80.8816 48.8401 81.1235C47.8928 81.3598 46.9762 81.7049 46.1084 82.1521C45.2672 82.601 44.508 83.1889 43.863 83.8911C43.2206 84.594 42.643 85.3535 42.1374 86.1604L42.0882 86.2369C41.9193 86.4992 41.7476 86.7761 41.5815 87.0437L41.5804 87.0454C41.1516 87.7364 40.7082 88.451 40.2058 89.105C39.722 89.7622 39.1366 90.3381 38.4716 90.8111C37.5008 91.4738 36.571 91.9073 35.7082 92.0993C35.6743 92.1607 35.6282 92.2144 35.5725 92.257C35.5169 92.2996 35.4531 92.3302 35.385 92.3469L35.3178 92.3623C35.0372 92.4256 34.7507 92.46 34.4631 92.4649C34.381 92.4652 34.299 92.4612 34.2174 92.4527ZM18.2987 97.9942C18.2895 98.0084 18.2794 98.0221 18.2686 98.0351L18.252 98.0543L18.3381 98.0195L18.2987 97.9942ZM59.5621 79.369C58.5926 79.369 57.6054 79.3951 56.6774 79.4218C56.5783 79.7217 56.3911 79.9848 56.1403 80.1768C55.8989 80.3759 55.6007 80.4932 55.2884 80.5119C55.5193 80.871 55.6543 81.2834 55.6804 81.7095C55.7116 82.1299 55.6416 82.5517 55.4762 82.9395C55.8249 83.0767 56.1475 83.2727 56.43 83.5188C56.7198 83.7727 56.959 84.0791 57.1348 84.422C57.2575 84.6602 57.3493 84.9131 57.4081 85.1746C57.4642 85.426 57.4886 85.6835 57.4806 85.941C57.4619 86.4538 57.3228 86.9551 57.0743 87.4041C57.2913 87.6053 57.4603 87.8525 57.5691 88.1277C57.683 88.4055 57.7365 88.7045 57.7259 89.0046C57.701 89.5855 57.3934 90.0896 57.096 90.577C57.0576 90.6399 57.0181 90.7047 56.9802 90.768C56.6944 91.2463 56.6331 91.6776 56.562 92.1768C56.5456 92.2919 56.5292 92.4109 56.5084 92.5345C56.4403 92.9764 56.2425 93.388 55.94 93.7172C55.6355 94.0338 55.2684 94.2835 54.8621 94.4503L54.9066 94.6252C55.0087 95.0531 55.1426 95.4727 55.307 95.8808C55.4677 96.285 55.7059 96.654 56.0082 96.9669C56.7431 97.6993 57.8604 97.7472 58.8462 97.7897C58.9308 97.7933 59.007 97.7967 59.0823 97.8006L59.1329 97.803C59.9154 97.8421 60.7105 97.8875 61.4795 97.9313H61.4812H61.4871L62.0133 97.9613L62.7333 98.0015C62.9592 98.014 63.2252 98.0267 63.4876 98.0267C63.8945 98.0348 64.3007 97.9901 64.6962 97.8937C65.1009 97.7912 65.4785 97.6018 65.8027 97.3388C66.4797 96.7907 67.1102 96.034 67.6767 95.0896C68.1756 94.2423 68.5936 93.35 68.9251 92.4243C69.2572 91.5103 69.5142 90.5707 69.6937 89.615C69.8722 88.6603 69.9846 87.6945 70.0302 86.7244C70.0755 85.7518 70.0652 84.7773 69.9995 83.8058C69.9379 82.8713 69.826 81.8973 69.667 80.911C67.5973 80.2398 65.4644 79.7819 63.3015 79.5446C62.0591 79.4185 60.8108 79.3599 59.5621 79.369ZM52.2191 79.1776C52.6608 79.1725 53.1013 79.2219 53.5309 79.3246C53.9429 79.4234 54.3308 79.6039 54.6717 79.8555C54.6731 79.8532 54.6743 79.8508 54.6755 79.8485C54.6767 79.8462 54.6792 79.8414 54.6815 79.8375C54.7882 79.6847 54.9096 79.5426 55.0439 79.4132L55.0481 79.4087C55.0605 79.397 55.0728 79.3848 55.086 79.3711L55.1591 79.2933L54.9919 79.2354C54.7374 79.1454 54.4515 79.0376 54.2807 78.9731C54.2118 78.9471 54.1622 78.9284 54.1428 78.9215L54.1382 78.92L53.9052 78.8412H53.9044C53.5327 78.7153 53.1474 78.5852 52.7707 78.4518C52.7035 78.428 52.6372 78.4031 52.5671 78.3767C52.2633 78.2627 51.9491 78.1447 51.632 78.1447C51.5698 78.1446 51.5076 78.1495 51.4462 78.1593C51.1286 78.2225 50.8288 78.3548 50.5681 78.5468C50.288 78.7468 50.0203 78.9634 49.7662 79.1954L49.7654 79.1961C49.6254 79.319 49.4931 79.4349 49.3621 79.5411L49.671 79.4811C50.4927 79.3238 51.3698 79.1777 52.2191 79.1776ZM73.0584 119.746C72.9837 119.746 72.9111 119.721 72.8524 119.675C72.8205 119.649 72.7941 119.618 72.7749 119.581C72.7557 119.545 72.7439 119.506 72.7404 119.465L72.6914 118.992C72.6451 118.392 72.5314 117.799 72.3525 117.225C72.1327 116.546 71.9881 115.845 71.9213 115.134C71.7948 114.015 71.7385 112.867 71.6917 111.788L71.6589 111.015C71.5544 108.601 71.5099 106.241 71.5265 104.002C71.5445 101.599 71.6334 99.2408 71.7912 96.9936L71.8151 96.6605C71.9144 95.3108 72.0111 94.2775 72.1291 93.309C72.28 92.0691 72.4636 90.9704 72.6902 89.9501C73.2413 87.4681 74.0573 85.428 75.185 83.7132C75.1923 83.7014 75.2025 83.6917 75.2147 83.6849C75.2268 83.6782 75.2405 83.6747 75.2544 83.6747C75.2672 83.6747 75.2799 83.6775 75.2915 83.6831C75.3031 83.6886 75.3133 83.6966 75.3213 83.7066C75.3288 83.7164 75.334 83.7278 75.3363 83.7399C75.3387 83.752 75.3382 83.7645 75.335 83.7764C74.7678 86.0998 74.192 88.5965 73.8229 91.1112C73.6778 92.0992 73.5666 93.1106 73.4831 94.203C73.4088 95.1759 73.3582 96.1916 73.3285 97.3075C73.2739 99.3798 73.301 101.489 73.3277 103.529V103.549C73.3322 103.893 73.3369 104.249 73.341 104.599L73.3437 104.832C73.3682 106.984 73.4047 109.53 73.4897 112.1C73.4994 112.395 73.5115 112.696 73.5236 112.988C73.5609 113.906 73.6001 114.856 73.5667 115.785C73.545 116.16 73.4978 116.533 73.4255 116.902C73.3785 117.173 73.33 117.453 73.3032 117.734C73.2697 118.213 73.2717 118.693 73.3093 119.172C73.3142 119.263 73.3202 119.366 73.3245 119.466C73.3279 119.502 73.3237 119.539 73.3122 119.573C73.3007 119.608 73.2822 119.64 73.2578 119.667C73.2317 119.693 73.2005 119.714 73.1661 119.727C73.1318 119.741 73.0951 119.747 73.0582 119.746H73.0584ZM85.1288 119.543C84.9981 119.545 84.8683 119.52 84.7472 119.471C84.6261 119.422 84.5162 119.348 84.424 119.256C84.3565 119.184 84.3048 119.1 84.2722 119.007C84.2395 118.915 84.2268 118.816 84.2346 118.719C84.403 116.161 84.5414 113.413 84.4161 110.651C84.295 107.987 84.0416 105.276 83.663 102.592C83.4278 100.925 83.1017 99.2447 82.7864 97.6201C82.6763 97.0532 82.5625 96.4671 82.4535 95.8859L82.3879 95.5333C82.0605 93.7602 81.7181 91.9587 81.3868 90.2172L81.3862 90.2139L81.315 89.8394L80.776 86.9986C80.0397 83.1219 79.1737 78.6209 78.2136 74.2606L78.159 74.012C77.6144 71.5808 77.0393 69.6451 76.349 67.9201C75.958 66.9337 75.4995 65.9755 74.9765 65.0523C74.4554 64.1339 73.8517 63.2649 73.1729 62.4561C72.8298 62.0513 72.4649 61.6654 72.0798 61.3003C71.7098 60.9495 71.3093 60.6057 70.8894 60.2786C70.0633 59.6417 69.19 59.0686 68.2771 58.564C67.4573 58.1049 66.5356 57.6468 65.4584 57.1642C64.4705 56.7215 63.4523 56.3022 62.554 55.9321C62.5225 55.9204 62.4962 55.8978 62.4798 55.8684C62.4635 55.8391 62.4582 55.8048 62.4649 55.7719C62.4694 55.7432 62.4841 55.7171 62.5064 55.6984C62.5286 55.6798 62.5568 55.6698 62.5859 55.6703C62.5988 55.6704 62.6118 55.672 62.6244 55.675L62.936 55.7494C65.1081 56.2697 67.4116 56.8643 69.5946 57.9072C70.6508 58.4129 71.6411 59.046 72.5435 59.7925C73.4443 60.5398 74.258 61.3864 74.9689 62.3163C76.2458 63.9799 77.2712 65.9236 78.1039 68.257C78.8953 70.4753 79.4221 72.8 79.833 74.7815C80.318 77.1201 80.7901 79.5021 81.2466 81.8055C81.7473 84.3322 82.2652 86.9449 82.8019 89.5095L82.9923 90.4227C83.5624 93.1645 83.9821 95.2792 84.3536 97.2796C84.8175 99.7782 85.1919 102.035 85.4982 104.177L85.5457 104.512C85.9363 107.299 86.1562 109.59 86.2379 111.723C86.286 112.98 86.2842 114.2 86.2327 115.346C86.1805 116.55 86.0647 117.75 85.8856 118.942C85.8741 119.033 85.8443 119.12 85.798 119.198C85.7518 119.276 85.69 119.345 85.6166 119.398C85.4732 119.497 85.3024 119.547 85.1286 119.543H85.1288ZM52.1941 115.531C52.0843 115.532 51.9771 115.498 51.8878 115.434C51.7985 115.371 51.7317 115.28 51.6969 115.176C51.5314 114.602 51.4523 114.006 51.4623 113.409C51.4595 112.799 51.5123 112.185 51.5635 111.592V111.59C51.5784 111.416 51.5927 111.251 51.6056 111.086L51.6847 110.068C51.7549 109.155 51.8349 108.077 51.8967 107.011C51.9786 105.601 52.0472 104.166 52.1091 102.825C52.1289 102.393 52.151 101.948 52.1764 101.465L52.2132 100.785C52.2174 100.71 52.221 100.633 52.2242 100.559C52.248 100.05 52.2726 99.5235 52.4778 99.0666C52.4936 99.0334 52.5189 99.0057 52.5505 98.987C52.5821 98.9682 52.6185 98.9592 52.6552 98.9612C52.694 98.96 52.7324 98.9691 52.7665 98.9877C52.8006 99.0062 52.8293 99.0334 52.8494 99.0666C53.1028 99.5342 53.1542 100.131 53.1992 100.658V100.66C53.2041 100.717 53.2092 100.775 53.2143 100.832L53.2199 100.892C53.3013 101.753 53.3519 102.415 53.3839 103.039C53.4533 104.401 53.4864 105.774 53.4822 107.119C53.4773 108.683 53.442 110.051 53.3745 111.301L53.3541 111.674C53.3271 112.3 53.2638 112.923 53.1646 113.541C53.0709 114.152 52.8786 114.744 52.5951 115.294C52.5567 115.366 52.4989 115.427 52.4281 115.469C52.3573 115.511 52.2762 115.533 52.1939 115.531L52.1941 115.531ZM5.02582 105.834C5.01992 105.834 5.01406 105.833 5.00844 105.831C4.93674 105.814 4.86963 105.781 4.81169 105.735C4.75376 105.69 4.70636 105.632 4.67274 105.566C4.59754 105.401 4.623 105.171 4.7485 104.883C5.05359 104.183 5.5562 103.542 6.04232 102.922L6.05073 102.911C6.09839 102.85 6.14576 102.79 6.19284 102.73C6.70582 102.073 7.26371 101.452 7.86248 100.872L8.03803 100.703C8.10592 100.636 8.175 100.566 8.24824 100.492C8.49486 100.229 8.76247 99.9866 9.04841 99.767C9.38148 99.5265 9.68788 99.4102 9.98488 99.4102C10.0085 99.4102 10.0323 99.411 10.0559 99.4125C10.1281 99.414 10.199 99.4317 10.2633 99.4644C10.3276 99.4971 10.3837 99.5439 10.4274 99.6013C10.4711 99.6587 10.5013 99.7253 10.5157 99.796C10.5301 99.8667 10.5283 99.9398 10.5105 100.01C10.4004 100.532 9.96259 100.856 9.53911 101.17C9.41821 101.26 9.3042 101.344 9.19674 101.433C8.65663 101.882 8.15511 102.355 7.64615 102.841C7.20944 103.257 6.78367 103.689 6.34446 104.162L6.18694 104.332C6.16026 104.362 6.10353 104.417 6.03182 104.487L6.03084 104.488C5.69011 104.821 4.98144 105.515 5.07687 105.722L5.08321 105.733C5.08932 105.743 5.09274 105.753 5.09306 105.764C5.09339 105.775 5.09062 105.786 5.08507 105.796C5.0794 105.807 5.07087 105.816 5.06038 105.823C5.04988 105.83 5.0378 105.833 5.02538 105.834L5.02582 105.834ZM46.5583 92.3141C46.2978 92.3115 46.0489 92.2059 45.8659 92.0204C45.6726 91.8251 45.534 91.5824 45.464 91.3167C45.4047 91.0474 45.3841 90.7709 45.4027 90.4957C45.4089 90.1728 45.4151 89.8388 45.2961 89.553C45.2291 89.4054 45.149 89.264 45.0568 89.1307C44.967 89.0003 44.8882 88.8626 44.8214 88.7191C44.6988 88.4281 44.6279 88.1179 44.6119 87.8026C44.6152 87.5377 44.6635 87.2752 44.7546 87.0265C44.8677 86.6476 44.9842 86.2558 44.8087 85.9333C44.7921 85.8993 44.7843 85.8617 44.786 85.8239C44.7877 85.7862 44.7988 85.7494 44.8184 85.717C44.8323 85.6911 44.8529 85.6693 44.8781 85.6541C44.9034 85.6389 44.9322 85.6308 44.9617 85.6305H44.9657L44.9819 85.6316C45.1983 85.6572 45.399 85.7578 45.549 85.9158C45.7004 86.0762 45.8072 86.2733 45.8589 86.4877C45.9067 86.6898 45.9425 86.8945 45.9659 87.1009C46.0195 87.504 46.07 87.8844 46.3292 88.2666C46.7409 88.8733 46.9749 89.3379 47.032 90.0528C47.0394 90.1449 47.043 90.2386 47.0475 90.3288V90.3301C47.0504 90.5359 47.0718 90.741 47.1114 90.943L47.1597 91.1481C47.2209 91.3638 47.2438 91.5886 47.2274 91.8123C47.2239 91.9134 47.189 92.011 47.1277 92.0915C47.0664 92.172 46.9816 92.2316 46.885 92.2619C46.7795 92.2961 46.6692 92.3137 46.5583 92.3141ZM25.785 81.559C25.3641 81.5625 24.9435 81.5332 24.5271 81.4715C24.5023 81.4685 24.4794 81.4565 24.4626 81.4378C24.4459 81.4192 24.4365 81.3951 24.4361 81.3701C24.4333 81.3392 24.4407 81.3083 24.4571 81.282C24.4736 81.2557 24.4982 81.2355 24.5271 81.2245C25.3361 80.9795 26.2134 80.8795 27.0613 80.7829C27.2553 80.761 27.4556 80.7379 27.6516 80.7137C28.5589 80.6011 29.7514 80.4481 30.9356 80.2633C32.117 80.0788 33.1848 79.8972 34.1999 79.7082C34.6871 79.6176 35.1813 79.5215 35.6686 79.4226C35.7723 79.4015 35.8763 79.375 35.9874 79.347C36.234 79.2736 36.4886 79.2303 36.7456 79.2184C36.8829 79.2162 37.0194 79.2402 37.1477 79.289C37.21 79.3124 37.2656 79.3508 37.3097 79.4007C37.3537 79.4507 37.3848 79.5106 37.4002 79.5754C37.4115 79.6302 37.4086 79.687 37.3917 79.7403C37.3748 79.7936 37.3446 79.8418 37.3038 79.8801C37.0086 80.1761 36.5961 80.2386 36.1974 80.299C36.1209 80.3107 36.0413 80.3228 35.9645 80.3362L35.9226 80.3438C35.3692 80.4462 34.8016 80.5457 34.2358 80.6394C33.1579 80.818 32.0857 80.9735 31.049 81.1017C29.8226 81.2536 28.7462 81.3669 27.7581 81.4485L27.3325 81.4834C26.8386 81.5225 26.3093 81.559 25.785 81.559ZM52.2771 76.4948C52.2094 76.4951 52.1428 76.4775 52.0841 76.4438C52.0254 76.4101 51.9766 76.3615 51.9428 76.3028C51.5132 75.5893 51.2945 74.7661 51.083 73.9699C50.9766 73.5689 50.8665 73.1546 50.731 72.7596C50.5541 72.2442 50.3621 71.7244 50.1766 71.2218V71.221C49.9484 70.6025 49.7125 69.9639 49.5024 69.3272C49.2488 68.5791 49.0576 67.8113 48.9309 67.0316C48.8031 66.255 48.7797 65.4648 48.8613 64.682L48.8564 64.6738C48.8524 64.6677 48.8487 64.6613 48.8454 64.6547L48.7205 64.3814C48.3848 63.6524 48.056 63.0006 47.4312 62.4063C47.2739 62.2565 47.1107 62.1086 46.953 61.9655C46.4646 61.5227 45.9597 61.0649 45.5749 60.5013C45.3757 60.2117 45.2227 59.8929 45.1215 59.5563C45.0277 59.2389 44.974 58.911 44.9616 58.5803C44.931 57.9214 45.0327 57.235 45.1311 56.5713C45.1923 56.1587 45.2555 55.7324 45.287 55.3142L45.3022 55.0973C45.3298 54.6784 45.3273 54.2178 45.0997 53.9766C44.9076 53.7729 44.5324 53.6775 44.2014 53.5933C44.0677 53.5593 43.9418 53.5277 43.8387 53.4907C42.9094 53.1681 42.005 52.778 41.1327 52.3234C40.3026 51.8946 39.5089 51.3989 38.7594 50.841L38.3814 50.5568C37.7828 50.105 37.165 49.613 36.767 49.0029C36.7578 48.9878 36.753 48.9705 36.753 48.9529C36.753 48.9352 36.7578 48.9179 36.767 48.9028C36.7747 48.8866 36.7867 48.8729 36.8016 48.8629C36.8166 48.853 36.8339 48.8472 36.8518 48.8463C36.8623 48.846 36.8728 48.8478 36.8826 48.8515C37.383 49.0728 37.8633 49.3367 38.3184 49.6403L38.3198 49.6412C38.4716 49.7362 38.6285 49.8346 38.7837 49.9277C38.7938 49.9041 38.8051 49.881 38.8175 49.8585C39.1982 49.1713 39.4745 48.4313 39.6373 47.6628C39.7977 46.8937 39.8473 46.1056 39.7846 45.3225C39.7752 45.2439 39.7824 45.1641 39.8058 45.0885C39.8292 45.0129 39.8684 44.943 39.9206 44.8835C39.9811 44.8224 40.0535 44.7744 40.1332 44.7425C40.213 44.7105 40.2985 44.6953 40.3844 44.6977C40.5513 44.6963 40.7137 44.7515 40.8453 44.8542C40.916 44.911 40.9739 44.9821 41.0154 45.0627C41.0568 45.1434 41.0808 45.2319 41.0858 45.3225C41.2216 47.1284 40.8237 48.9343 39.9415 50.5159C39.9372 50.5236 39.9326 50.5307 39.9282 50.5378L39.9211 50.5487C40.5589 50.8807 41.0899 51.1364 41.5921 51.353C42.3717 51.6895 43.0971 51.9645 43.8098 52.1936C44.0024 52.2556 44.2034 52.3059 44.4159 52.359C44.9449 52.4914 45.4914 52.6282 45.9017 52.955C46.1719 53.1724 46.3792 53.4579 46.5021 53.7822C46.6254 54.1136 46.6919 54.4635 46.6989 54.817C46.7276 55.5459 46.5828 56.3341 46.4664 56.9673C46.452 57.0454 46.4372 57.1258 46.4233 57.2034L46.3871 57.4075C46.2736 58.0607 46.1864 58.7521 46.4683 59.3938C46.743 60.0193 47.2694 60.4914 47.7784 60.948L47.7842 60.9532C47.8279 60.9922 47.8712 61.031 47.9139 61.0697L48.0232 61.1681C48.5348 61.6342 49.0555 62.1454 49.4 62.7252C49.6836 62.1387 50.0613 61.643 50.4613 61.119L50.4627 61.1171C50.5139 61.0501 50.5668 60.9807 50.6192 60.9114C50.8858 60.5594 50.7817 60.3958 50.609 60.1244C50.5685 60.0609 50.5227 59.9888 50.4778 59.9077C50.365 59.7096 50.2821 59.496 50.2316 59.2737C50.1828 59.051 50.1754 58.8213 50.2098 58.596C50.2425 58.3861 50.3081 58.1826 50.4041 57.9931C50.4998 57.806 50.6175 57.6311 50.7549 57.4721C51.0371 57.1547 51.3601 56.8762 51.7156 56.6439C52.1913 56.3313 52.6824 56.0429 53.1871 55.7797C53.5445 55.5857 53.914 55.3851 54.2661 55.169C56.0027 54.1137 57.6436 52.9084 59.17 51.567C59.1794 51.5585 59.1916 51.5539 59.2042 51.554C59.2142 51.5539 59.2241 51.5566 59.2328 51.5616C59.2416 51.5666 59.2488 51.5739 59.2538 51.5826C59.2577 51.5899 59.2594 51.5981 59.2588 51.6063C59.2582 51.6145 59.2553 51.6224 59.2504 51.629C58.0885 53.4295 56.6322 55.0218 54.9423 56.3394C54.3479 56.7995 53.7143 57.2015 53.1015 57.5902C52.9858 57.6635 52.8817 57.7297 52.7774 57.7962L52.5657 57.9321C52.2255 58.1525 51.8932 58.3989 51.7677 58.7059C51.6651 58.9558 51.8095 59.1623 51.949 59.3618C51.9927 59.4242 52.0377 59.4886 52.0745 59.5534C52.189 59.7505 52.2693 59.9656 52.312 60.1895C52.3486 60.3922 52.3488 60.5998 52.3127 60.8025C52.2225 61.2272 52.0281 61.6227 51.7469 61.9534L51.7199 61.987C51.1339 62.7092 50.7012 63.374 50.4946 64.271C50.2906 65.1564 50.2912 66.1239 50.4963 67.2279C50.6807 68.2208 51.0048 69.1927 51.327 70.0952L51.3529 70.1674C51.4391 70.4079 51.5278 70.651 51.6141 70.8867L51.6152 70.8896C51.8833 71.6239 52.1603 72.3829 52.3936 73.1426L52.4784 73.4204C52.7591 74.3495 52.9852 75.2608 52.6732 76.2068C52.646 76.2905 52.593 76.3634 52.5218 76.4151C52.4507 76.4669 52.3651 76.4947 52.2771 76.4948ZM55.7727 63.2505C55.687 63.2505 55.5995 63.2472 55.5127 63.2409C54.9979 63.2103 54.4963 63.0664 54.0436 62.8195C53.8572 62.6998 53.6836 62.5613 53.5254 62.4063C53.1946 62.1063 52.8527 61.7962 52.4744 61.7962C52.4024 61.7963 52.3308 61.8078 52.2624 61.8302C52.2563 61.8322 52.2499 61.8332 52.2435 61.8332C52.228 61.8322 52.2131 61.8266 52.2007 61.817C52.1884 61.8075 52.1792 61.7945 52.1743 61.7797C52.1694 61.7677 52.1686 61.7545 52.1718 61.742C52.1751 61.7294 52.1823 61.7183 52.1925 61.7103C52.3517 61.5757 52.5536 61.5021 52.7621 61.5026C53.1404 61.5026 53.5284 61.727 53.9035 61.9441C54.1248 62.0841 54.3602 62.2004 54.6057 62.2913C55.1434 62.4626 55.7208 62.4636 56.259 62.2939C56.7971 62.1243 57.2697 61.7924 57.6118 61.3437C58.3691 60.3706 59.0666 59.3525 59.7006 58.2949C60.0251 57.7694 60.3164 57.2241 60.5727 56.6622C60.7063 56.3415 60.8096 56.009 60.8813 55.669C60.9395 55.4089 61.012 55.1523 61.0987 54.9002C61.1557 54.7431 61.264 54.6098 61.4062 54.5218C61.5405 54.4391 61.6952 54.3952 61.8529 54.3952C61.9476 54.3928 62.0418 54.4096 62.1298 54.4445C62.2178 54.4795 62.2978 54.5318 62.3651 54.5985C62.4249 54.6653 62.4702 54.7437 62.4981 54.8289C62.526 54.914 62.536 55.0041 62.5273 55.0933C62.4934 55.7016 62.2508 56.264 62.0164 56.8079C61.994 56.8598 61.9717 56.9117 61.9495 56.9636L61.9219 57.0283C61.6588 57.6531 61.3432 58.2544 60.9785 58.8258C60.2652 59.9239 59.4587 60.9586 58.5681 61.9185C58.2112 62.3181 57.7826 62.6473 57.3044 62.8891C56.8287 63.1265 56.3043 63.2502 55.7725 63.2505H55.7727ZM62.1293 53.9564C61.9559 53.9514 61.7914 53.8788 61.6708 53.7541C61.1663 53.2802 60.7006 52.7667 60.2782 52.2184C59.8499 51.6754 59.5139 51.0657 59.2834 50.4137C59.278 50.3968 59.2767 50.3787 59.2798 50.3612C59.2828 50.3436 59.2901 50.3271 59.3009 50.3129C59.3129 50.2962 59.3286 50.2824 59.3468 50.2728C59.365 50.2632 59.3852 50.2579 59.4058 50.2574C59.4265 50.2573 59.4468 50.2634 59.4641 50.2748C59.8078 50.5106 60.1348 50.7699 60.4426 51.0509C60.5896 51.179 60.7416 51.3114 60.8938 51.4359C61.4219 51.8676 61.9569 52.2925 62.4841 52.6988C62.6147 52.7934 62.7115 52.9276 62.76 53.0814C62.7978 53.2122 62.794 53.3515 62.7491 53.48C62.7071 53.6134 62.6251 53.7307 62.5142 53.8159C62.4034 53.9011 62.269 53.9502 62.1293 53.9564ZM58.444 51.8326C58.289 51.8315 58.1391 51.7772 58.0194 51.6787C57.324 51.1176 56.8107 50.3628 56.5444 49.5099C56.4103 49.0887 56.3353 48.6509 56.3215 48.2091C56.3072 47.7631 56.3566 47.3173 56.4683 46.8852C56.4968 46.7514 56.5714 46.6318 56.679 46.5473C56.7867 46.4628 56.9205 46.4188 57.0573 46.4228C57.1642 46.4226 57.2699 46.4459 57.3669 46.4911C57.4639 46.5362 57.5497 46.6021 57.6184 46.6841C57.6763 46.7566 57.7165 46.8417 57.7357 46.9325C57.755 47.0233 57.7527 47.1173 57.7292 47.2071L57.7233 47.2312C57.5581 47.8649 57.5838 48.5334 57.7972 49.1526C58.0125 49.7697 58.3947 50.315 58.9013 50.7279L58.9393 50.7588C59.0366 50.8317 59.1085 50.9334 59.1446 51.0495C59.1722 51.1499 59.1678 51.2565 59.1322 51.3543C59.0775 51.4931 58.983 51.6126 58.8605 51.6977C58.738 51.7828 58.5931 51.8297 58.444 51.8326Z" fill="black"/>
<path d="M66.8923 26.989C66.657 24.9214 66.9615 20.5996 66.982 20.3371C67.1109 18.6771 66.3332 12.1225 64.8629 12.7264C62.3964 10.7743 59.1117 10.3432 56.04 10.1372C49.6597 9.70938 42.8722 10.6916 37.9454 14.9853C35.509 17.2153 33.137 20.4584 33.3276 23.8353C31.1141 27.0362 27.9932 31.4271 30.7514 35.169C31.6889 36.3645 33.179 36.8098 34.3567 37.7152C36.7257 39.626 38.2119 42.3682 40.6034 44.2676C46.9391 49.9609 57.6973 51.1502 63.9222 44.6746C68.7358 39.9851 67.9575 32.9683 67.1107 26.9894C66.5416 22.9696 67.3513 31.0227 66.8923 26.989Z" fill="white"/>
<path d="M55.1718 49.3185C54.4756 49.317 53.7804 49.2658 53.0914 49.1655C52.2906 49.0589 51.5032 48.8683 50.7422 48.597C50.3498 48.4557 49.9792 48.2599 49.6412 48.0155C49.3074 47.7675 49.0063 47.4785 48.7448 47.1551C48.6724 47.0569 48.6274 46.9412 48.6144 46.8198C48.6015 46.6985 48.621 46.5759 48.6711 46.4646C48.7039 46.3868 48.7592 46.3207 48.83 46.2746C48.9008 46.2286 48.9837 46.2049 49.0681 46.2064C49.0908 46.2064 49.1136 46.2079 49.1362 46.2107C49.9143 46.291 50.6835 46.4419 51.4344 46.6615L51.5437 46.6961C52.3085 46.9472 53.0978 47.1165 53.8984 47.2011C54.3022 47.2403 54.7117 47.2601 55.1156 47.2601C56.353 47.2627 57.5835 47.0751 58.7639 46.7038C59.401 46.5009 60.0174 46.2381 60.605 45.919C61.1925 45.5998 61.7505 45.2292 62.2726 44.8115C63.3188 43.974 64.2153 42.9649 64.9236 41.8272C65.6909 40.5956 66.1995 39.2025 66.4786 37.5684C66.7467 35.9985 66.7719 34.382 66.761 33.0079C66.7361 29.7402 66.6299 26.3217 66.4451 22.8472L66.4145 22.2833C66.3364 20.8525 66.2353 18.9655 66.1468 17.0571C66.1174 16.4178 66.0753 15.8957 66.0144 15.4141C65.3733 15.0528 64.835 14.534 64.4503 13.9067C63.7244 14.1973 62.9774 14.4323 62.2158 14.6096C61.1718 14.868 60.1004 14.9995 59.0249 15.0014C58.3962 15.0016 57.7684 14.9548 57.1467 14.8612C56.6941 15.0481 56.226 15.2149 55.7552 15.357C55.624 15.415 55.4959 15.4709 55.3726 15.5235C54.2428 16.0156 53.0757 16.4169 51.8822 16.7238L51.5871 16.7973C50.9351 16.9718 50.2696 17.0913 49.5976 17.1545C49.4802 17.199 49.36 17.2359 49.2378 17.2649C48.7864 17.3741 48.3235 17.4291 47.859 17.4288C47.6942 17.4288 47.5275 17.4218 47.3632 17.4082C47.2089 17.3967 47.06 17.3467 46.9299 17.2628C46.7999 17.179 46.693 17.0638 46.6189 16.928C46.5593 16.8148 46.5293 16.6884 46.5315 16.5606C46.535 16.4195 46.5751 16.2819 46.6477 16.1609C46.8907 15.744 47.1412 15.3192 47.3921 14.8984C46.5187 15.2588 45.6244 15.5661 44.714 15.8187C43.9058 16.0462 43.0239 16.2609 41.9384 16.4942C41.692 16.5468 41.441 16.5971 41.1984 16.6458H41.1975H41.1966C40.9501 16.6953 40.6952 16.7465 40.4453 16.7998C40.3662 16.8167 40.2779 16.8317 40.1845 16.8475C39.8539 16.9035 39.48 16.9669 39.2548 17.1486C39.0064 17.3479 38.8981 17.7459 38.8025 18.0972C38.7753 18.1969 38.7497 18.2911 38.7224 18.3739C38.5525 18.8851 38.4066 19.3593 38.2764 19.8234C38.0046 20.7973 37.782 21.7843 37.6095 22.7806C37.438 23.7793 37.3201 24.7864 37.2563 25.7977C37.2298 26.2141 37.2188 26.6386 37.2082 27.0491C37.1932 27.634 37.1775 28.2388 37.1165 28.83C37.1011 28.9971 37.0262 29.1531 36.9057 29.2698C36.7946 29.3762 36.6469 29.436 36.493 29.4368C36.334 29.4343 36.1816 29.3731 36.0649 29.2651C36.0172 29.223 35.9666 29.1776 35.9158 29.1325L35.8419 29.065C35.474 28.7427 35.1384 28.3854 34.8397 27.9981C34.7883 27.9275 34.7379 27.8522 34.6898 27.774C34.6819 27.774 34.6742 27.7714 34.6679 27.7665L34.5877 27.706C33.7446 27.0784 33.019 26.7602 32.431 26.7602C32.2245 26.7565 32.0201 26.8021 31.8346 26.893C31.6492 26.984 31.4881 27.1177 31.3645 27.2832C31.0835 27.6394 30.9426 28.0995 30.8325 28.5027L30.6276 29.2679C30.4883 29.7657 30.378 30.2712 30.2975 30.7818C30.2047 31.3705 30.2032 31.97 30.2931 32.5592C30.3777 33.15 30.6236 33.706 31.0037 34.1661C31.3162 34.5409 31.7545 34.7891 32.2366 34.8646C32.3071 34.8741 32.3783 34.8787 32.4494 34.8784C32.6133 34.8747 32.7767 34.8603 32.9386 34.8353H32.9416C32.9748 34.8309 33.0081 34.8266 33.0414 34.8223C33.1092 34.8142 33.1775 34.8103 33.2459 34.8107C33.3181 34.8107 33.3913 34.8141 33.4619 34.8174H33.4624C33.5336 34.8206 33.6072 34.824 33.6801 34.824C33.7415 34.824 33.7964 34.8216 33.8481 34.8167C33.8648 34.8151 33.8814 34.8142 33.8976 34.8142C33.974 34.8139 34.049 34.8338 34.1152 34.8719C34.1814 34.91 34.2364 34.9649 34.2745 35.0311C34.3278 35.1186 34.3587 35.218 34.3646 35.3203C34.3705 35.4226 34.3511 35.5249 34.3082 35.618C34.2272 35.7826 34.1239 35.9353 34.001 36.0716C34.0956 36.1535 34.1857 36.2403 34.2711 36.3318C34.5357 36.4232 34.7653 36.5947 34.928 36.8226C35.0609 36.9986 35.1385 37.2102 35.151 37.4304C35.1649 37.4791 35.1778 37.5313 35.1914 37.5943L35.426 37.9748C35.4835 38.068 35.534 38.1487 35.5806 38.2217C36.1579 39.1417 36.8586 39.9782 37.6631 40.7079C37.9564 40.9749 38.2643 41.2359 38.5615 41.4883C39.0837 41.9165 39.5839 42.3708 40.0603 42.8494L40.1478 42.9413C40.5138 43.3026 40.8297 43.7115 41.0869 44.1569C41.3541 44.6622 41.4244 45.1414 41.3018 45.6217C41.2694 45.7236 41.206 45.8129 41.1204 45.877C41.0348 45.9411 40.9313 45.9768 40.8244 45.9791C40.7441 45.9798 40.6658 45.9545 40.6011 45.907C40.122 45.5514 39.7784 45.062 39.4462 44.5887C39.2257 44.2583 38.9819 43.9441 38.7165 43.6486C38.3619 43.2719 37.9817 42.9085 37.614 42.5572C37.2563 42.2155 36.8865 41.8621 36.5405 41.4969C35.8846 40.8027 35.3499 40.0034 34.9587 39.1321C34.7235 39.3597 34.4097 39.488 34.0825 39.4903C33.8467 39.489 33.6167 39.4182 33.4209 39.2869C33.2242 39.1565 33.0651 38.9769 32.9593 38.7659C32.8073 38.8343 32.6514 38.8934 32.4924 38.943C32.4033 38.9709 32.3106 38.9854 32.2173 38.986C32.0785 38.9848 31.9424 38.9481 31.8218 38.8794C31.7013 38.8107 31.6003 38.7123 31.5286 38.5936C31.4366 38.4485 31.3811 38.2832 31.367 38.112C31.351 37.9347 31.3812 37.7563 31.4545 37.5941C31.6096 37.2434 31.8244 36.9224 32.0895 36.6453C31.2767 36.5238 30.5206 36.1564 29.9228 35.5926C29.285 34.9505 28.8583 34.1291 28.6998 33.238C28.6137 32.7958 28.5734 32.3458 28.5796 31.8953C28.5855 31.445 28.6274 30.9959 28.7049 30.5522C28.8698 29.6115 29.1355 28.6912 29.4975 27.8074C29.566 27.6399 29.632 27.4904 29.6996 27.3514C29.6788 27.3511 29.6583 27.3463 29.6396 27.3372C29.6209 27.3281 29.6045 27.3151 29.5914 27.299C29.5088 27.1863 29.4191 27.0791 29.3323 26.9756C29.1539 26.7801 29.0008 26.5631 28.8765 26.3295C28.8402 26.2549 28.8023 26.1788 28.7657 26.1053C28.6287 25.8417 28.5058 25.571 28.3978 25.2943C28.1119 24.5226 27.9876 23.6586 27.9113 22.9922C27.7431 21.4358 27.7865 19.8638 28.0403 18.3191C28.2446 16.9988 28.5901 15.7043 29.0707 14.4577C29.5491 13.2164 30.1566 12.0289 30.8833 10.9147C30.8031 10.8726 30.7276 10.822 30.6581 10.7638L30.6233 10.7334L30.5666 10.6823C30.4734 10.5952 30.3989 10.49 30.3479 10.373C30.2968 10.2561 30.2702 10.13 30.2697 10.0024C30.2653 9.85977 30.2892 9.71772 30.3402 9.58447C30.3912 9.45123 30.4681 9.32945 30.5666 9.22625L30.6861 9.106C30.8454 8.94319 31.0217 8.79802 31.2121 8.67302C31.2474 8.6493 31.2845 8.62645 31.3223 8.60492C31.254 8.48131 31.2114 8.34515 31.1971 8.20464C31.1828 8.06413 31.1972 7.92219 31.2392 7.78737C31.2796 7.64424 31.3489 7.51093 31.4429 7.39571C31.537 7.2805 31.6537 7.18584 31.7858 7.11761C32.0673 6.97769 32.3788 6.90893 32.6931 6.91735C33.1611 6.92149 33.6227 7.02676 34.0463 7.22594C35.1229 6.26319 36.3146 5.43747 37.5941 4.76762C39.1527 3.96234 40.7714 3.27909 42.4357 2.72402C44.0992 2.166 45.7962 1.71328 47.5166 1.36855C49.0214 1.0481 50.5544 0.878916 52.0929 0.863525C52.3026 0.863525 52.5128 0.867351 52.7176 0.874457L52.8519 0.879704C53.5626 0.897013 54.2712 0.963561 54.9726 1.07887C55.8018 1.22918 56.4544 1.46846 56.9674 1.8105C57.0135 1.76333 57.0764 1.7363 57.1423 1.73529C57.1745 1.73525 57.2062 1.74247 57.2351 1.75639C58.4944 2.35761 59.8716 2.80469 61.2032 3.23735L61.5202 3.34032C62.9459 3.80735 64.421 4.10731 65.916 4.23417C66.0725 4.24808 66.2229 4.30223 66.3523 4.39136C66.4796 4.47653 66.5825 4.5933 66.651 4.73023C66.7067 4.84063 66.7317 4.96402 66.7232 5.08742C66.7147 5.21082 66.6731 5.32964 66.6028 5.43136C66.5153 5.56549 66.4313 5.69907 66.3536 5.82335L66.4776 5.81035H66.4783C66.5724 5.8004 66.6698 5.79012 66.7654 5.7805C66.7851 5.77854 66.8052 5.77755 66.8252 5.77755C66.9339 5.7822 67.0405 5.80882 67.1386 5.85578C67.2367 5.90275 67.3243 5.9691 67.396 6.05083C67.4752 6.1305 67.5377 6.22514 67.5798 6.32924C67.622 6.43333 67.643 6.54478 67.6416 6.65708C67.6252 6.93172 67.5949 7.20535 67.5508 7.47692H67.5541H67.5823C67.7459 7.47539 67.9081 7.5068 68.0592 7.56929C68.4318 7.7267 68.6593 8.02184 68.7546 8.47177C68.8345 8.84879 68.8086 9.27434 68.7753 9.67803C68.6804 10.8287 68.2388 11.9056 67.5639 12.6329C67.8351 12.9141 68.0702 13.2282 68.2635 13.5677C68.4614 13.9189 68.6169 14.2925 68.7266 14.6804C68.9045 15.2709 68.977 15.8881 68.9408 16.5038L68.9262 16.6867C68.8665 17.384 68.7468 18.0937 68.2794 18.5611C68.1847 18.6596 68.0711 18.7381 67.9454 18.7917C67.8197 18.8454 67.6844 18.8731 67.5478 18.8733C67.5139 18.8733 67.4793 18.8715 67.4453 18.8682C67.6202 20.407 67.7341 21.9828 67.8356 23.4648L67.8849 24.1972C68.0209 26.2542 68.112 27.9451 68.1718 29.5188C68.2451 31.4473 68.2702 33.1894 68.2484 34.8447C68.2399 35.6668 68.1869 36.4878 68.0896 37.3042C67.9934 38.1085 67.8396 38.9049 67.6296 39.6872C67.4196 40.4659 67.1409 41.2244 66.7967 41.9537C66.4432 42.6983 66.0151 43.4052 65.5189 44.0634C65.0568 44.6749 64.5443 45.2466 63.9868 45.7725C63.431 46.2968 62.8316 46.7729 62.1952 47.1957C61.5591 47.618 60.8871 47.9836 60.1869 48.2881C59.4832 48.5936 58.7528 48.8335 58.005 49.0047C57.0753 49.2151 56.1249 49.3204 55.1718 49.3185ZM34.6964 32.6516H34.6783C34.3988 32.6432 34.1314 32.5356 33.9241 32.3481C33.7188 32.1561 33.5355 31.9419 33.3775 31.7095C33.3223 31.6346 33.2652 31.5573 33.2077 31.483C33.1619 31.5684 33.0999 31.6442 33.0252 31.706L32.9749 31.7454C32.8213 31.8782 32.6281 31.9565 32.4254 31.9679C32.4153 31.9679 32.4053 31.9679 32.3955 31.9673C32.2384 31.9602 32.0846 31.9187 31.9452 31.8458C31.773 31.7507 31.6411 31.5966 31.5735 31.4118C31.496 31.2162 31.4868 31 31.5474 30.7984C31.608 30.5969 31.735 30.4217 31.9076 30.3012L31.842 30.2561C31.6965 30.1632 31.5707 30.0427 31.4715 29.9014L31.4489 29.8652H31.4576C31.4297 29.8188 31.4128 29.7666 31.4082 29.7127C31.4036 29.6587 31.4114 29.6044 31.4311 29.554C31.4507 29.5035 31.4816 29.4582 31.5215 29.4216C31.5614 29.385 31.6091 29.358 31.6611 29.3427C31.7677 29.3091 31.879 29.2926 31.9908 29.2937C32.454 29.2937 32.9694 29.5334 33.3837 29.7259C33.4253 29.7453 33.4681 29.7652 33.5097 29.7842C34.1695 30.087 34.7385 30.5447 35.2554 30.9943C35.4901 31.1991 35.5833 31.5518 35.5046 31.9376L35.5007 31.9571C35.4954 31.9835 35.4897 32.0108 35.4837 32.0382C35.4421 32.2138 35.3383 32.3683 35.1916 32.4734C35.0498 32.5842 34.8763 32.6466 34.6964 32.6516Z" fill="black"/>
<path fill-rule="evenodd" clip-rule="evenodd" d="M47.1499 22.4716C48.2235 21.3761 51.0233 20.316 51.7577 22.339C51.8976 22.7244 51.5998 23.2439 51.1986 23.3238C50.8361 23.396 50.4962 23.3415 50.1546 23.2867C49.8772 23.2422 49.5987 23.1976 49.3062 23.2205C48.7779 23.2622 48.2268 23.4387 47.8044 23.766C46.6346 24.6724 46.3773 26.2055 45.5621 27.3592C45.5224 27.4154 45.4454 27.3918 45.438 27.3255C45.2524 25.646 45.9739 23.6714 47.1499 22.4716ZM63.3878 21.3863C62.6716 21.1631 61.8647 21.1415 61.1522 21.3932C60.8081 21.5147 60.4947 21.6766 60.2075 21.9007C59.9246 22.1215 59.8029 22.3461 59.5916 22.6199C59.5493 22.6747 59.619 22.7504 59.6784 22.7328C60.7935 22.4031 62.3121 22.626 63.2383 23.3256C63.6302 23.6217 63.9535 24.0249 64.1421 24.4805C64.4278 25.1702 64.528 25.8201 65.3531 26.0588C65.7218 26.1656 66.1291 26.0498 66.3992 25.7824L66.4664 25.7157L66.4892 25.6927C66.9916 25.1673 66.7517 24.4289 66.1904 24.1049C66.0867 23.9108 65.9907 23.585 65.8994 23.4272C65.7276 23.1296 65.5133 22.85 65.2818 22.5966C64.7716 22.0384 64.1092 21.6112 63.3878 21.3863ZM62.4657 26.0688C64.2864 25.9835 65.419 27.9714 65.0003 29.6003C64.928 29.8814 64.6136 30.1573 64.3101 30.1257L64.2336 30.1186C64.1948 30.1149 64.1558 30.11 64.1199 30.1001C63.8318 30.0203 63.5735 29.7206 63.5945 29.4099L63.6001 29.3194C63.6425 28.5499 63.5591 27.6634 62.6447 27.477C61.8691 27.319 61.4361 28.0655 61.4269 28.7526C61.4252 28.8746 61.2881 28.9597 61.1802 28.8942C60.6195 28.553 60.5225 27.8743 60.7366 27.2898C61.008 26.5492 61.6873 26.1052 62.4657 26.0688ZM52.3504 27.9307C51.7088 26.7593 50.2793 26.0531 48.9544 26.4951C48.2322 26.7359 47.6601 27.3475 47.3657 28.0352C47.1413 28.5593 47.0282 29.4749 47.6577 29.7791C47.7412 29.8194 47.8247 29.8097 47.8944 29.7486C48.487 29.2287 48.4626 28.3363 49.3075 28.0413C50.0309 27.7888 50.8249 28.2648 51.0206 28.9861L51.0279 29.0113C51.2001 29.5694 51.9764 29.8012 52.3908 29.3478C52.6558 29.0581 52.7238 28.8171 52.7689 28.435C52.8002 28.1693 52.5754 27.9959 52.3504 27.9307ZM61.8293 30.8115C61.6161 28.3973 58.2503 29.1825 56.9088 29.9507C56.816 30.0039 56.8513 30.1696 56.9658 30.1608C57.2326 30.1405 57.4976 30.1046 57.7626 30.0687C58.2151 30.0073 58.6672 29.9461 59.1272 29.9625C59.6157 29.9802 60.3958 30.0799 60.5791 30.6256C60.7862 31.2425 60.1183 31.7137 59.6174 31.861L59.5883 31.8694C59.124 32.0038 58.2483 32.2119 57.8323 31.9295C57.0227 31.3797 56.1586 32.5831 56.8101 33.2542C57.5929 34.0606 59.1962 33.6407 60.1007 33.2688L60.1369 33.2536C61.1014 32.8429 61.9272 31.9224 61.8293 30.8115ZM50.1474 34.4744C51.5314 34.3064 52.884 34.5755 54.2347 34.8441C54.7128 34.9392 55.1906 35.0342 55.6694 35.1098C56.6366 35.2624 57.605 35.3763 58.5837 35.4187C58.7806 35.4273 58.9777 35.4323 59.1747 35.4363C59.1929 35.263 59.29 35.1037 59.5003 35.0083C59.9314 34.8129 60.2764 34.7248 60.7497 34.7436C61.1829 34.7608 61.6177 34.8053 62.0443 34.8833C62.819 35.0254 63.5971 35.3477 64.1638 35.9077C65.4752 37.2034 65.2756 39.2846 64.2623 40.6958C62.1687 43.612 58.3477 43.7473 55.0751 43.7093L54.7731 43.7054C54.4399 43.7006 54.0907 43.7019 53.7313 43.7033H53.73C50.8753 43.7142 47.3786 43.7276 46.1764 40.7169C45.6786 39.4702 45.7477 38.0252 46.3573 36.8294C47.0843 35.4032 48.6146 34.6604 50.1474 34.4744ZM54.3158 36.2243L53.943 36.1824C53.9124 36.1789 53.8818 36.1754 53.8512 36.1719C52.8463 36.0572 51.8419 35.9427 50.837 36.0115C50.6871 36.0219 50.5349 36.0382 50.3824 36.0606C50.5655 36.7211 50.5501 37.4968 50.6265 38.1506C50.6561 38.4034 50.6934 38.6542 50.7347 38.9039L50.9144 38.8955C52.0256 38.8353 53.1378 38.7982 54.2499 38.7541C54.2498 38.5453 54.2509 38.3364 54.2543 38.1274L54.2584 37.9184C54.2621 37.7622 54.2618 37.6002 54.2614 37.4352C54.2606 37.0362 54.2597 36.6196 54.3158 36.2243ZM56.2449 36.3531C57.3102 36.3518 58.4311 36.3145 59.5157 36.1395C59.561 36.1722 59.6087 36.2008 59.6591 36.2214L59.702 36.2369C59.6448 36.7391 59.6044 37.2435 59.5675 37.748L59.5135 38.5045L59.3207 38.5148C57.9542 38.5842 56.5874 38.6512 55.2206 38.7132L55.174 38.3196C55.1219 37.8696 55.0739 37.4193 55.032 36.9683C55.0111 36.7451 54.9967 36.5161 54.969 36.2898C55.3941 36.3276 55.8194 36.3537 56.2449 36.3531ZM47.8532 37.5457C48.284 36.7708 49.0855 36.3472 49.9324 36.1468C49.7254 36.7882 49.7155 37.5866 49.6957 38.2225L49.6846 38.5558C49.6806 38.6859 49.6776 38.8162 49.6752 38.9467C48.9506 38.9728 48.2225 39.0044 47.5067 39.0877C47.4851 38.5506 47.5976 38.0056 47.8532 37.5457ZM59.9867 36.3273C60.0464 37.0406 60.0795 37.7568 60.1235 38.4714L61.0243 38.4233C61.1745 38.4151 61.3246 38.4067 61.4747 38.398C61.6369 38.3888 61.812 38.3683 61.9926 38.3472C62.4621 38.2926 62.969 38.2334 63.3858 38.3526C63.4299 37.8279 63.2799 37.3167 62.8063 36.9643C61.975 36.3452 60.9165 36.5656 59.9867 36.3273ZM63.1816 39.1531C62.829 39.2362 62.4369 39.2354 62.0631 39.2345C61.8976 39.2342 61.7357 39.2338 61.5825 39.2407C61.1148 39.262 60.6471 39.2805 60.1795 39.2994C60.2014 39.6187 60.223 39.9378 60.2463 40.2569C60.2764 40.6692 60.2793 41.1051 60.3582 41.5156C61.2994 41.1945 62.1426 40.6794 62.7753 39.8557C62.9329 39.6505 63.074 39.4097 63.1816 39.1531ZM59.4285 39.3309L59.4551 39.3298C59.4358 39.6029 59.4159 39.8758 59.3974 40.149C59.3679 40.5888 59.3749 41.061 59.2984 41.5043C59.2217 41.5683 59.1638 41.6619 59.144 41.8009L59.1419 41.8245C58.054 42.0186 56.9054 42.0392 55.8383 42.0308C55.8263 42.0049 55.8143 41.9789 55.7977 41.9531C55.75 41.8784 55.686 41.8271 55.6154 41.7951L55.6221 41.7492C55.6346 41.6704 55.6085 41.5611 55.5848 41.4624C55.5737 41.4159 55.5632 41.3719 55.5575 41.3344C55.5155 41.0578 55.4751 40.7809 55.4375 40.5038C55.3895 40.1515 55.3475 39.7984 55.3064 39.4455C56.681 39.4211 58.0546 39.3839 59.4285 39.3309ZM47.7316 40.1359C47.6316 39.8946 47.5647 39.6355 47.5304 39.3707C48.2367 39.4415 48.956 39.4567 49.6706 39.4634C49.673 40.1017 49.7049 40.7407 49.7938 41.3693C49.8295 41.6221 49.9708 41.7697 50.1487 41.8311C49.1233 41.6307 48.1543 41.1551 47.7316 40.1359ZM54.2565 39.4642C53.2663 39.481 52.2756 39.494 51.2856 39.4819L50.8362 39.475C50.9311 39.9842 51.0344 40.4916 51.1202 41.0042C51.2098 41.5384 50.7396 41.878 50.3326 41.8643C50.3783 41.8718 50.4239 41.8795 50.4696 41.886C51.5267 42.0355 52.6175 42.0278 53.6968 42.02C53.9157 42.0185 54.1342 42.0169 54.3518 42.0167C54.3019 41.7258 54.3023 41.4083 54.3027 41.1271C54.3029 41.0165 54.303 40.9116 54.3001 40.816L54.2981 40.7637C54.2783 40.3302 54.2645 39.8973 54.2565 39.4642Z" fill="black"/>
<path fill-rule="evenodd" clip-rule="evenodd" d="M70.279 24.693C70.5807 24.4402 71.1071 24.3803 71.4716 24.3795C72.3029 24.5386 71.9588 25.8055 70.3743 25.0174C72.7552 34.9745 57.5109 35.3992 60.0828 25.9338C58.5436 25.5636 56.9185 25.5334 55.5056 26.2363C56.7252 30.576 52.6674 34.7483 48.0034 33.6769C44.9913 32.9775 42.9811 30.6426 43.9123 27.2106C43.321 27.396 42.2127 27.2417 41.8697 26.7802C40.684 26.679 39.5052 26.5345 38.3278 26.3901C35.6901 26.0668 33.0597 25.7444 30.375 25.9108C30.0099 25.9613 30.0303 26.2186 30.0507 26.4757C30.0711 26.7318 30.0914 26.9878 29.7306 27.039C28.9009 26.9633 29.2269 25.5613 29.8209 25.3334C30.6544 24.736 37.8225 25.3288 41.9225 26.404C42.4666 26.047 43.2865 26.1561 43.9325 26.242C44.0366 26.2559 44.1361 26.2691 44.2291 26.2797C45.0367 24.2566 47.625 21.7346 50.2218 22.1599C52.601 22.2987 54.5999 23.2384 55.4121 25.9221C56.6522 24.7972 58.901 24.434 60.3311 25.2846C61.1243 23.5013 62.5199 22.1599 64.4006 21.5551C66.7888 19.8619 69.535 22.184 70.279 24.693ZM68.3986 30.5371C67.0714 31.9084 64.8559 32.3019 63.0902 31.5665C58.5563 29.6722 60.7755 23.7639 64.272 22.1772C64.7089 22.0683 65.2923 21.81 65.8243 21.7514C65.8425 21.7425 65.8688 21.7467 65.9012 21.7519C65.9547 21.7605 66.0251 21.7717 66.104 21.7315C69.9596 22.162 70.8376 28.1471 68.3986 30.5371ZM47.2581 32.5537C49.5191 33.4715 52.2865 32.8624 53.775 30.8881C56.5532 27.2479 53.8874 21.0757 47.4317 23.5014C44.3757 25.5554 42.7914 30.7946 47.2581 32.5537ZM44.0921 26.5136C44.088 26.5117 44.0838 26.5107 44.0795 26.5087C44.1032 26.4983 44.1268 26.4879 44.1503 26.4773C44.1426 26.4973 44.1343 26.5171 44.1269 26.5371C44.1153 26.5292 44.1051 26.5199 44.0921 26.5136Z" fill="black"/>
<path d="M58.1973 72.9341C58.1055 73.6692 56.6528 73.7755 56.822 74.7908C56.9221 75.3914 57.7209 75.7296 58.1973 75.9943C59.201 76.5519 58.1227 77.4586 57.5784 77.7307" stroke="#F9F9F9" stroke-linecap="round"/>
<path d="M62.5297 73.3983C62.4491 72.7535 61.4757 74.0945 61.3693 74.1891C60.874 74.6293 61.0442 75.8704 61.6013 76.149C62.0752 76.3859 62.8392 76.3792 62.8392 77.0344C62.8392 77.5895 62.7561 77.576 62.2203 77.576" stroke="#F9F9F9" stroke-linecap="round"/>
<path d="M67.3262 73.2436C66.6943 73.2688 66.2182 73.7561 65.7016 74.0946C64.8489 74.6532 64.6042 74.7768 64.7131 75.8653C64.7915 76.6501 65.1031 76.5608 65.6242 76.8367C66.188 77.1351 65.3147 77.3439 65.1601 77.4212" stroke="#F9F9F9" stroke-linecap="round"/>
</svg>
